<svg width="34" height="33" fill="none" xmlns="http://www.w3.org/2000/svg">
    <path d="M32.658 17.194c-.416-.383-.173-2.051 0-2.837h-1.319l-1.458 1.718-1.698 4.156v4.255l1.238.44c-.127-.368.054-1.1.16-1.419l1.758-.18.4-1.278c.128.351.48.426.639.42-.16-.48.12-1.692.28-2.238l.839-.1c-.592-.096-.806-1.998-.84-2.937Z" fill="#573A1F"/>
    <path d="M32.658 14.357c-.173.786-.416 2.454 0 2.837.033.939.247 2.84.839 2.937l-.84.1c-.16.546-.439 1.758-.279 2.237-.16.007-.511-.068-.64-.42l-.399 1.28-1.758.179c-.106.32-.287 1.05-.16 1.418l-1.238-.44v-4.254l1.698-4.156 1.458-1.718h1.319Zm-2.535 1.865-1.66 4.063v4.003l.636.226c.006-.124.02-.247.038-.36.046-.286.122-.564.179-.735l.057-.172 1.754-.18.592-1.892.283.778c.013.036.03.066.049.092l.001-.061c.007-.206.034-.432.07-.654.072-.445.185-.896.267-1.178l.052-.177.447-.053a3.718 3.718 0 0 1-.293-.884 11.093 11.093 0 0 1-.213-1.735c-.117-.16-.172-.37-.2-.563a4.277 4.277 0 0 1-.024-.829c.023-.437.09-.9.158-1.274h-.847l-1.346 1.585Z" fill="#4D331C"/>
    <mask id="a" style="mask-type:alpha" maskUnits="userSpaceOnUse" x="28" y="14" width="6" height="11">
        <path d="M32.658 17.194c-.416-.383-.173-2.051 0-2.837h-1.319l-1.458 1.718-1.698 4.156v4.255l1.238.44c-.127-.368.054-1.1.16-1.419l1.758-.18.4-1.278c.128.351.48.426.639.42-.16-.48.12-1.692.28-2.238l.839-.1c-.592-.096-.806-1.998-.84-2.937Z" fill="#4C341E"/>
    </mask>
    <mask id="b" style="mask-type:alpha" maskUnits="userSpaceOnUse" x="28" y="14" width="6" height="11">
        <path d="M32.658 14.357c-.173.786-.416 2.454 0 2.837.033.939.247 2.84.839 2.937l-.84.1c-.16.546-.439 1.758-.279 2.237-.16.007-.511-.068-.64-.42l-.399 1.28-1.758.179c-.106.32-.287 1.05-.16 1.418l-1.238-.44v-4.254l1.698-4.156 1.458-1.718h1.319Zm-2.535 1.865-1.66 4.063v4.003l.636.226c.006-.124.02-.247.038-.36.046-.286.122-.564.179-.735l.057-.172 1.754-.18.592-1.892.283.778c.013.036.03.066.049.092l.001-.061c.007-.206.034-.432.07-.654.072-.445.185-.896.267-1.178l.052-.177.447-.053a3.718 3.718 0 0 1-.293-.884 11.093 11.093 0 0 1-.213-1.735c-.117-.16-.172-.37-.2-.563a4.277 4.277 0 0 1-.024-.829c.023-.437.09-.9.158-1.274h-.847l-1.346 1.585Z" fill="#4D331C"/>
    </mask>
    <g mask="url(#b)">
        <path opacity=".15" d="m31.939 16.715.959-1.06-.28-.598h-1.379l-1.838 1.738 2.418 2.856-3.556 2.318 2.097.679.4-1.239.68-.42h.499l.679-.838.52-.14-.52-1.259-2.018-1.658 1.339-.38Z" fill="#000"/>
    </g>
    <path d="m1.572 16.735.76-1.379.559-.899 1.478-.22 1.419 2.158.28 2.657 2.037 6.972-3.516-3.136c-.112.575-.859.919-1.219 1.018v-1.018c-.351.383-.839.426-1.038.4.463-.56.566-2.391.559-3.237-.432.959-1.378.759-1.858.56.7-1.18.946-3.037.54-3.876Z" fill="#5C3E24"/>
    <path d="m6.02 16.312.284 2.694L8.57 26.76l-3.887-3.468c-.123.2-.3.36-.474.48-.271.189-.573.31-.774.366l-.304.084v-.857a1.512 1.512 0 0 1-.83.16l-.43-.057.276-.334c.084-.1.166-.28.238-.535.07-.248.124-.543.165-.854.043-.332.07-.675.085-.986-.192.14-.407.216-.624.244-.41.052-.812-.064-1.07-.171l-.255-.107.141-.237c.33-.556.558-1.283.653-1.975.096-.702.049-1.318-.123-1.674l-.054-.111.819-1.488.003-.005.003-.005.618-.994 1.74-.258 1.534 2.334Zm-3.129-1.855-.56.9-.758 1.378c.406.839.16 2.697-.54 3.875.48.2 1.427.4 1.858-.56.007.847-.096 2.678-.56 3.237.2.027.688-.016 1.04-.4v1.02c.36-.1 1.106-.444 1.218-1.02l3.516 3.137-2.037-6.972-.28-2.657-1.419-2.158-1.478.22Z" fill="#4D331C"/>
    <mask id="c" style="mask-type:alpha" maskUnits="userSpaceOnUse" x="0" y="14" width="9" height="13">
        <path d="m1.632 16.774.7-1.418.559-.899 1.478-.22 1.419 2.158.28 2.657 2.037 6.972-3.516-3.136c-.112.575-.86.919-1.219 1.018v-1.018c-.351.383-.839.426-1.039.4.464-.56.566-2.392.56-3.237-.432.959-1.632 1.065-2.178.999.975-1.199 1.325-3.437.92-4.276Z" fill="#4E331C"/>
    </mask>
    <mask id="d" style="mask-type:alpha" maskUnits="userSpaceOnUse" x="0" y="13" width="9" height="14">
        <path d="m6.02 16.312.284 2.693L8.57 26.76l-3.887-3.468c-.123.2-.3.36-.474.48-.271.189-.573.31-.774.366l-.304.084v-.857a1.511 1.511 0 0 1-.831.16l-.43-.057.277-.334c.084-.1.166-.28.238-.535.07-.248.124-.543.165-.854.043-.326.07-.663.085-.969a2.152 2.152 0 0 1-.715.387c-.461.15-.934.162-1.236.125l-.43-.053.274-.337c.454-.558.774-1.377.928-2.166.076-.393.11-.771.102-1.098-.009-.33-.06-.589-.141-.755l-.051-.105.75-1.524.006-.01.006-.01.618-.994 1.74-.258 1.534 2.334Zm-3.129-1.855-.56.9-.699 1.418c.407.839.056 3.076-.919 4.275.547.066 1.747-.04 2.178-1 .007.847-.096 2.678-.56 3.237.2.027.688-.016 1.04-.4v1.02c.36-.1 1.106-.444 1.218-1.02l3.516 3.137-2.038-6.972-.28-2.657-1.418-2.158-1.478.22Z" fill="#4D331C"/>
    </mask>
    <g mask="url(#d)" fill="#000">
        <path opacity=".2" d="m5.528 25.485 1.598 2.797 1.359-2.318-2.457-6.452-2.438.619.9 1.938-.2.879.559.799v.48l.38.279.3.979ZM5.009 17.534l.38-1-.38-2.896-6.533 1.578 1.279 3.996 1.418-1.678 1.139-.8.26.6 2.437.2Z"/>
    </g>
    <path d="M30.28 18.393c0 7.193-5.831 13.025-13.025 13.025S6.427 25.165 4.229 18.393c0-.652.987-.933 1.08-1.559.083-.565-.736-1.478-.583-2.017 1.555-5.455 6.575-9.45 12.529-9.45 7.194 0 13.025 5.832 13.025 13.026Z" fill="#F3CA8A"/>
    <mask id="e" style="mask-type:alpha" maskUnits="userSpaceOnUse" x="4" y="5" width="27" height="27">
        <path d="M30.28 18.393c0 7.193-5.831 13.025-13.025 13.025S6.427 25.165 4.229 18.393c0-.652.987-.933 1.08-1.559.083-.565-.736-1.478-.583-2.017 1.555-5.455 6.575-9.45 12.529-9.45 7.194 0 13.025 5.832 13.025 13.026Z" fill="#F3CA8A"/>
    </mask>
    <g opacity=".1" fill="#000" mask="url(#e)">
        <path d="m27.204 10.741 5.933-.979-1.778-1.578-13.685-3.796L6.387 8.184l3.276 2.797c.927-.192.706-1.492.48-2.118 2.573-.095 4.868 1.372 5.693 2.118l-.18-1.858s3.443.906 4.935 1.359l-.38-1.1c.656.608 3.137.986 4.296 1.1l.1-.46c1.294.863 2.27.84 2.597.72ZM10.942 21.01c-3.916-2.925-2.977-4.335-3.096-8.271l-2.538-.24.4 4.975 1.898 5.653L12 29.78h4.155c-2.365-1.47-3.01-3.796-3.036-4.775l1.738.4.799-1.219-1.618-.759-.14-.839s-2.777-1.385-2.957-1.578Z"/>
    </g>
    <path d="m28.007 17.094 2.41-.444a1.918 1.918 0 0 1 2.264 1.887v.378c0 1.188-1.069 2.09-2.24 1.89l-2.434-.415v-3.296Z" fill="#894D1B"/>
    <path d="m27.947 16.952 2.303-.21a1.918 1.918 0 0 1 2.092 1.91v.116a1.918 1.918 0 0 1-2.092 1.91l-2.303-.21v-3.516Z" fill="#F3CA8A"/>
    <path opacity=".15" d="M31.539 18.552c-.5-.519-1.152-.352-1.199-.14l-.44-.838c.864-.176 1.32.2 1.639.978Z" fill="#000"/>
    <path d="M29.643 17.604c.256-.209.578-.305.899-.269.32.037.614.203.818.464a1.342 1.342 0 0 1 .013 1.624 1.334 1.334 0 0 0-.173-1.344 1.192 1.192 0 0 0-1.468-.353l-.089-.122Z" fill="#894D1B"/>
    <path d="M29.752 17.538a.898.898 0 0 1 .51.346.848.848 0 0 1 .164.583.685.685 0 0 1-.512.598.675.675 0 0 0 .315-.576c0-.2-.078-.4-.219-.557a.87.87 0 0 0-.283-.21l.025-.184ZM6.667 17.094l-2.41-.444a1.918 1.918 0 0 0-2.265 1.887v.378c0 1.188 1.07 2.09 2.24 1.89l2.435-.415v-3.296Z" fill="#894D1B"/>
    <path d="m6.727 16.952-2.304-.209a1.918 1.918 0 0 0-2.091 1.91v.115c0 1.128.968 2.012 2.091 1.91l2.304-.21v-3.516Z" fill="#F3CA8A"/>
    <path opacity=".15" d="M3.135 18.553c.5-.52 1.152-.353 1.198-.14l.44-.84c-.863-.175-1.319.2-1.638.98Z" fill="#000"/>
    <path d="M5.03 17.604a1.205 1.205 0 0 0-.898-.269c-.321.037-.615.203-.819.464-.204.26-.302.595-.274.933.021.253.113.493.26.69a1.334 1.334 0 0 1 .173-1.344c.205-.26.499-.427.82-.463.223-.025.447.014.649.11l.09-.12Z" fill="#894D1B"/>
    <path d="M4.922 17.538a.897.897 0 0 0-.511.346.848.848 0 0 0-.163.583.685.685 0 0 0 .511.598.675.675 0 0 1-.315-.576c0-.2.078-.4.219-.556a.87.87 0 0 1 .284-.21l-.025-.185Z" fill="#894D1B"/>
    <path opacity=".8" d="M20.032 21.47c.15.343.738 1.05.594 1.392-.144.342-.714.652-1.073.815-.48.218-.616.293-1.073.43-.457.135-.745.238-1.33.275-.455.029-.912-.065-1.245-.104-.448-.072-.782-.202-1.187-.351-.283-.105-.64-.22-.852-.615-.187-.524.128-1.218.193-1.583l.03.001c-.06.36-.137 1.034.01 1.317.155.3.42.46.699.6.36.18.799.3 1.199.38.2.04.735.086 1.158.06.424-.028.825-.127 1.239-.22a4.056 4.056 0 0 0 1.039-.44c.498-.295.824-.48.959-.8.128-.303-.26-.825-.418-1.15l.058-.008Z" fill="#884C1A"/>
    <path d="M21.72 25.976c-1.127.83-2.702 1.345-4.445 1.345-1.743 0-3.318-.515-4.446-1.345 1.244.582 2.781.927 4.446.927 1.665 0 3.202-.345 4.446-.927ZM23.022 15.009a3.101 3.101 0 0 0-1.928-.746 3.101 3.101 0 0 0-1.966.643c.51-.608 1.21-.976 1.974-.956.763.02 1.443.424 1.92 1.059Z" fill="#955B28"/>
    <path d="M22.215 17.573c0 .784-.527 1.419-1.178 1.419-.651 0-1.18-.635-1.18-1.419 0-.783.529-1.418 1.18-1.418.65 0 1.178.635 1.178 1.418Z" fill="#fff"/>
    <path d="M21.542 17.793a.799.799 0 1 1-1.598 0 .799.799 0 0 1 1.598 0Z" fill="#6A4D23"/>
    <path d="M14.086 14.531a3.101 3.101 0 0 0-2.06-.167 3.101 3.101 0 0 0-1.702 1.176c.316-.729.883-1.28 1.62-1.478.738-.197 1.504-.003 2.142.47Z" fill="#955B28"/>
    <path d="M13.819 17.574c0 .783-.528 1.418-1.179 1.418-.65 0-1.179-.635-1.179-1.418 0-.784.528-1.419 1.18-1.419.65 0 1.178.635 1.178 1.419Z" fill="#fff"/>
    <path d="M13.145 17.793a.8.8 0 1 1-1.598 0 .8.8 0 0 1 1.598 0Z" fill="#6A4D23"/>
    <path d="M20.912.432c-.266.337-.584.534-.915.706.583.056 1.09.307 1.602.53 1.253.546 2.676.71 4.05.792l.273.01-.202.183c-.325.257-.692.357-1.065.407.801.355 1.739.473 2.52.135l.156-.08v.175c-.082.529-.32.919-.543 1.334.927.46 2.095.205 2.932-.378l.164-.12v.203c-.113.775-.748 1.154-1.34 1.465.77.135 1.681-.117 2.49-.301l.123-.032v.126c-.358.98-1.198 1.417-1.934 1.943 1.022.488 2.263.481 3.407.424l.332-.027-.272.191a8.034 8.034 0 0 1-2.207 1.124l.06.103c.227.393.502.76.876.99.37.234.829.32 1.277.472l.122.041-.05.12a.124.124 0 0 1-.074.07.309.309 0 0 1-.094.016l-.072.003-.136.005c-.09.004-.177.01-.263.02a.94.94 0 0 0-.318.085l.505.42.048.04-.005.062c-.084.647.312 1.175.928 1.398l.156.069-.116.125c-.188.206-.449.35-.576.506l.841.42.069.034v.076c0 .018-.002.02-.003.028a.222.222 0 0 1-.012.047.43.43 0 0 1-.077.124.649.649 0 0 1-.126.106 1.248 1.248 0 0 1-.265.129c-.165.059-.33.094-.496.122a3.891 3.891 0 0 0-.724 1.22l-.019.058-.056.021-1.557.593-.86.735.164.267.046.076-.055.069-.143.182.265.22.118.1-.119.097-.324.269c.08.08.127.181.159.27.05.146.071.29.073.441l-.014.058-.14.28.26.273.09.098-.1.088-.133.116.658.16.103.026-.004.105c-.01.38-.028.782 0 1.137l.014.108-.104.033-.403.129.035.599-.01.058-.242.575.247.814.051.17h-1.032a7.769 7.769 0 0 0-.132.958l-.003.04-.024.03-.28.36-.04.051h-.271V26.337h-.32v.879h-.439v.46H26.8v.52l-.169-.044a235.11 235.11 0 0 0-.252-.067 4.77 4.77 0 0 0-.018.552l.006.193-.183-.061-.26-.087-.043.432-.017.168-.16-.053-.3-.1-.222.133-.443.635-.047.068-.082-.01-.344-.048-.136.273-.038.075h-.249l-.04.228-.026.147-.144-.04-.407-.112V30.775H22.923l-.146.391-.034.089h-.704l-.164.378-.045.104-.11-.026-.397-.091-.082.259-.03.096h-.1c-.306-.015-.54-.127-.773-.259a.583.583 0 0 0-.096.047 1.702 1.702 0 0 0-.162.115c-.108.085-.213.18-.31.277l-.095.094-.097-.092-.213-.2-.053.09-.032.054-.061.012-.375.071-.168.186-.084.092-.1-.074-.223-.163-.26.168-.098.063-.079-.086-.334-.367-.429.182-.063.026-.06-.034-.329-.19c-.148.04-.296.082-.443.124l-.066.002-1.072-.226-.228.196-.131.112-.081-.152-.08-.148-.128.109-.128.108-.082-.146-.14-.25h-.531l-.024-.109-.023-.109c-.158.063-.299.082-.455.117l-.19.034.027-.19.025-.176-.163-.07-.221.11-.153.076-.044-.165-.068-.26-.297.043-.072.01-.05-.053-.657-.696-1.009-.388-.065-.025-.019-.067-.095-.333-.71-.106-.067-.01-.034-.059-.44-.764-.863-.46-.059-.032-.013-.066-.091-.476-.508-.488-.03-.029-.009-.04-.148-.648-.376-.269-.059-.042v-.292l-.416-.398-.056-.053.013-.066v-.008a1.538 1.538 0 0 0-.029-.12 8.546 8.546 0 0 0-.147-.433h-.444v-.785l-.098-.477-.352-.08-.127-.03.02-.128.088-.562-.221-.19-.049-.041v-.468l-.156-.684-.013-.055.03-.048 1.038-1.745v-.842l-.453-.279-.142-.088.112-.124.407-.455-.216-.132-.044-.043-.26-.4-.015-.029a.856.856 0 0 0-.327-.439c-.158-.112-.376-.244-.514-.445l-.005-.008a1.126 1.126 0 0 0-.17-.025.734.734 0 0 0-.252.02.85.85 0 0 0-.069.108 2.6 2.6 0 0 0-.088.19c-.056.13-.107.267-.158.404-.106.276-.19.55-.342.837l-.26.452v-2.277c-.65.736-1.493 1.346-2.538 1.434l-.04-.27c.506-.167.873-.69 1.17-1.184.149-.254.282-.52.405-.79.047-.102.092-.204.136-.308a13.503 13.503 0 0 1-.915.46c-.002 0-.004.002-.005.003l-.108-.25.005-.003c.456-.354.774-1.025 1.052-1.67-.336.191-.728.289-1.142.188l-.406-.132.407-.127c.646-.27.992-1.087 1.086-1.826.202-1.258.781-2.378 1.464-3.417-.279-.119-.712.014-1.029.176l-.348.186.165-.36c.603-.995 1.65-1.383 2.638-1.737a.69.69 0 0 0-.284-.15 2.085 2.085 0 0 0-.538-.083l.003-.262c.672-.068 1.184-.831 1.541-1.464.325-.86-.588-1.73-1.315-2.276l.107-.228 3.76 1.015c.48-.83 1.255-1.342 2.042-1.78.738-.377 1.572-.457 2.379-.33l.029.009c2.59 1.034 5.57.444 8.223-.3l.288-.092-.152.262Zm1.677 24.294-.68.04-.678.42-.18.538-.56-.18-.739.66-2.537-.18-.839.3-1.438-.48h-1.06l-.539-.659-.659.1-1.358-1.338-.38.2-.26-.2c.08.22.24.767.24 1.198 0 .432.014.207.02.04l.66.54v.479c.26.24.838.707 1.078.66v.419l.76.26v.919l.978-.24v1.098l.64.38 1.058-.38.26.38.6-.18.439.56.899.14.1-.6.5.18 1.118-.28.66-1.058 1.078-.24.06-.74.84.16.039-.859 1.039-1.238v-.56l.16-.839-.74-.2-.579.78ZM15.84 9.914C13.814 8.4 10.942 7.57 8.62 8.752c.405.142.803.368 1.028.756.25.424.2.966-.034 1.381l-.02.035-.04-.007c-.636-.125-1.337-.075-1.85.324-.491.374-.767.986-.827 1.597l.874-.22.04.12c-.717.354-1.09 1.184-1.328 1.944l.397.471.015.018v.024c.01.422-.126.833-.336 1.19a2.229 2.229 0 0 1-.22.312l.424.533.027.034-.017.038-.206.468.144.27.024.044-.034.037-.317.35.601.15.04.01.012.038.261.779.015.044-.033.032-.078.078.531.198.05.019V20.67l.583-.156.168-.044-.079.154c-.08.16-.137.333-.1.483.034.15.18.249.345.3.336.098.715.078 1.071.022l.047-.008.03.037 1.035 1.287h.303v.082c.329.507 1.17.83 1.828 1.13.205-.025.41-.05.616-.077l.082-.01.013.081c.073.17.4.325.651.427a3517706.87 3517706.87 0 0 1 3.514-.004l2.623-.318.677-.582.067-.057.062.062c.467.024 1.182-.067 1.779-.144l.753-.968.038-.03.722-.317-.31-.585-.064-.12.133-.024 1.296-.246-.001-.735v-.236l.171.162c.22.182.6.136.93.038-.172-.18-.222-.44-.244-.655a2.885 2.885 0 0 1 .062-.85l.018-.082h.598V18.334l.074-.023.881-.27-.194-.74-.069-.262.229.143c.213.109.58-.034.854-.184.17-.47.313-.954.358-1.441.05-.472-.055-1.105-.497-1.15l-.121-.008.019-.12.19-1.202-.488.148-.214.065.076-.21c.503-1.205-.354-2.357-1.338-3.141l-.226-.249.33.058c1.117.138 2.46.283 3.313-.428l.055-.056c-2.134.683-4.541.516-6.543-.508l.136.547.02.078-.079.018c-1.63.217-3.178-.336-4.666-.873l.3.77.084.214-.19-.129c-.58-.318-1.3-.426-1.974-.56a34.372 34.372 0 0 0-2.306-.333c.354.385.606.852.745 1.359l.04.166-.139-.1Z" fill="#734F2F"/>
    <path d="M21.148.219c-.05.087-.1.174-.152.261l-.306.531-.01.008.004.001-.132.23a2.947 2.947 0 0 0-.555-.112c.33-.172.649-.369.915-.707l.152-.261-.288.092c-2.654.744-5.633 1.334-8.223.3l-.03-.01c-.806-.126-1.64-.046-2.378.33-.787.439-1.562.952-2.041 1.781L4.343 1.648l-.107.228c.727.546 1.64 1.416 1.315 2.276-.357.633-.87 1.396-1.541 1.464l-.003.262c.18.005.368.03.538.082a.69.69 0 0 1 .284.151c-.988.354-2.035.742-2.638 1.738l-.166.359.35-.187c.316-.16.749-.294 1.028-.175-.683 1.04-1.262 2.16-1.464 3.417-.094.739-.44 1.556-1.086 1.826l-.407.127.406.131c.413.102.806.004 1.141-.187-.277.645-.596 1.315-1.05 1.67l-.006.002.108.251.004-.003v.001a13.499 13.499 0 0 0 .916-.46c-.044.103-.09.205-.136.307-.123.27-.256.535-.405.79-.297.494-.664 1.017-1.17 1.184l.04.27c1.044-.088 1.887-.698 2.538-1.434v2.276l.26-.451c.151-.287.236-.561.341-.837.052-.137.103-.273.159-.405.028-.066.057-.13.088-.19a.839.839 0 0 1 .071-.11.737.737 0 0 1 .25-.017 1.126 1.126 0 0 1 .17.025l.005.008c.138.2.355.333.514.445.16.114.263.254.327.44l.015.028.26.4.044.043.216.132-.407.455-.112.124.142.088.453.279v.842L4.59 21.058l-.029.048.013.055.156.684v.468l.049.042.22.189-.087.562-.02.129.127.029.351.08.1.477v.785h.442a8.546 8.546 0 0 1 .147.433 1.538 1.538 0 0 1 .03.12v.008l-.013.066.056.053.416.398v.292l.059.042.376.269.148.647.01.04.03.03.507.488.091.476.013.066.059.031.863.46.44.765.034.059.066.01.71.106.096.333.019.067.065.025 1.01.388.657.696.05.053.07-.01.297-.043.069.26.043.165.154-.076.221-.111.163.071-.025.175-.027.191.19-.034c.156-.035.296-.054.455-.117l.023.109.024.11h.53l.14.248.083.147.128-.109.129-.108.079.148.08.152.132-.112.228-.196 1.072.226.066-.002.443-.125.329.19.06.035.063-.026.43-.182.333.367.079.086.098-.063.26-.168.223.163.1.074.083-.092.17-.186.374-.071.061-.012.032-.054.052-.09.214.2.097.092.094-.095c.098-.097.203-.191.31-.276.054-.042.109-.082.163-.115a.572.572 0 0 1 .096-.047c.234.132.467.244.773.259h.1l.03-.096.082-.26.396.092.11.026.046-.105.164-.377h.704l.034-.089.146-.39H23.224V30.477l.408.112.144.04.026-.147.04-.228h.249l.038-.075.136-.273.343.047.082.011.048-.068.442-.635.222-.134.3.1.16.054.018-.168.043-.432c.086.03.173.058.26.087l.183.061-.007-.193a4.77 4.77 0 0 1 .002-.353c.002-.058.006-.116.013-.171l.004-.028.252.067.169.044v-.52h.618v-.46h.44v-.879h.319V25.757h.271l.04-.051.28-.36.024-.03.003-.04c.03-.32.064-.653.132-.958h1.032l-.051-.17-.247-.814.241-.576.01-.058-.034-.598.403-.13.104-.032-.015-.108c-.027-.355-.01-.758 0-1.137l.005-.106-.103-.025-.658-.16.133-.116.1-.088-.091-.098-.258-.274.14-.28.013-.056a1.393 1.393 0 0 0-.074-.443.715.715 0 0 0-.158-.27l.324-.268.119-.098-.118-.098-.265-.22.143-.183.055-.07-.046-.075-.164-.267.86-.735 1.557-.593.056-.02.019-.058c.158-.438.41-.865.723-1.222.167-.027.332-.063.497-.121.088-.032.179-.072.265-.129a.652.652 0 0 0 .126-.106.43.43 0 0 0 .081-.139.389.389 0 0 0 .008-.032c.001-.008.002-.01.002-.028v-.076l-.068-.034-.841-.42c.127-.157.388-.3.576-.506l.116-.125-.156-.07c-.616-.222-1.012-.75-.928-1.397l.004-.062-.047-.04-.505-.42a.942.942 0 0 1 .318-.085c.086-.01.174-.017.263-.02l.136-.005.071-.004a.716.716 0 0 0 .07-.008.182.182 0 0 0 .025-.007l.009-.004.015-.008a.125.125 0 0 0 .05-.059l.05-.119-.122-.04c-.448-.152-.907-.239-1.277-.473-.374-.23-.65-.597-.877-.99l-.06-.103a8.034 8.034 0 0 0 2.208-1.124l.272-.19-.332.026c-1.144.057-2.385.064-3.408-.424.737-.526 1.576-.964 1.935-1.943v-.126l-.122.032c-.81.184-1.72.436-2.492.3.593-.31 1.228-.69 1.34-1.465v-.202l-.163.12c-.837.583-2.005.838-2.933.378.224-.416.462-.805.544-1.334v-.176l-.156.08c-.782.339-1.719.22-2.52-.134.372-.05.74-.15 1.065-.407l.201-.183-.271-.01c-1.375-.083-2.798-.246-4.051-.792-.332-.144-.66-.3-1.009-.407l.17-.216c.333.111.644.258.941.388 1.225.532 2.596.69 3.961.775l.27.01.617.024-.459.415-.201.182-.013.01a1.953 1.953 0 0 1-.363.229c.53.111 1.078.097 1.557-.108l.147-.076.361-.186v.601l-.003.018c-.062.433-.251.824-.441 1.176.788.269 1.737.036 2.445-.454l.16-.118.387-.285V4.346l-.003.017c-.064.527-.387.92-.767 1.214.527-.047 1.074-.192 1.621-.315l.12-.03.297-.08v.477l-.014.04c-.293.844-1.012 1.362-1.666 1.808.897.306 1.911.294 2.902.247l.327-.026.842-.069-.69.486-.273.191-.062.045a8.24 8.24 0 0 1-1.94 1.014c.195.316.427.6.717.778l.002.001c.335.213.78.299 1.228.45l.122.042.229.076-.093.223-.05.118-.001.003a.368.368 0 0 1-.134.158l-.004.002a.343.343 0 0 1-.063.03.375.375 0 0 1-.105.026 3.045 3.045 0 0 1-.131.008l-.135.005a4.083 4.083 0 0 0-.096.005l.152.127.048.04.087.072-.008.114-.004.061-.002.013c-.082.511.276.99.782 1.162l.015.006.156.07.28.124-.207.226-.116.125c-.111.121-.24.22-.351.305l.552.277.068.034.12.06V14.323l-.001.025a.283.283 0 0 1-.002.022l-.001.004v.006a.448.448 0 0 1-.023.085.65.65 0 0 1-.12.195v.002a.869.869 0 0 1-.167.141h-.001a1.47 1.47 0 0 1-.311.152h-.002c-.15.054-.304.09-.455.118a3.666 3.666 0 0 0-.651 1.145l-.032.097-.096.037-.056.021-1.524.578-.695.593.07.113.046.075.076.126-.09.115-.055.07-.017.02.107.09.118.098.195.163-.196.162-.118.097-.174.144c.03.054.052.109.07.161l.002.003c.056.164.083.34.084.508v.025l-.006.026-.013.057-.006.023-.01.022-.075.15.158.167.091.098.148.157-.094.083.269.066.102.025.164.04-.006.17-.004.105-.009.282c-.008.282-.013.559.006.827l.014.1.022.171-.164.053-.103.033-.252.08.025.44.001.023-.004.023-.01.058-.004.023-.009.021-.213.509.224.743.051.17.08.261H29.09c-.046.25-.072.511-.097.774l-.003.038-.005.06-.037.047-.024.03-.28.36-.04.051-.06.077h-.17v.579h-.32V27.414h-.44v.459h-.198a59.23 59.23 0 0 1-.422 0v.577l-.247-.065-.167-.044-.027-.007a4.65 4.65 0 0 0 0 .296l.006.194.01.279-.266-.088-.183-.062-.03-.01-.019.19-.017.168-.024.241-.23-.077-.16-.053-.216-.072-.11.066-.42.601-.047.068-.067.096-.117-.016-.081-.011-.208-.028-.075.15-.038.075-.053.105H24.001l-.012.07-.026.147-.036.206-.202-.056-.144-.04-.167-.046v.238h-.36l-.1.268-.034.088-.046.122h-.712l-.115.264-.045.104-.062.143-.152-.035a57.477 57.477 0 0 0-.11-.026l-.23-.053-.03.095-.03.096-.04.13H21.102c-.279-.01-.545-.115-.77-.236a1.566 1.566 0 0 0-.138.099l-.038.03a3.56 3.56 0 0 0-.256.231l-.095.094-.126.127-.13-.123-.097-.091-.046-.043-.01.017-.082.015-.061.012-.314.06-.128.14-.084.091-.11.122-.133-.097-.1-.073-.122-.09-.154.1-.098.063-.13.084-.104-.114a61.418 61.418 0 0 1-.078-.087l-.248-.272-.31.131-.064.027-.083.035-.078-.045-.06-.035-.263-.152-.37.103-.02.006h-.023l-.065.002-.022.001-.021-.004-.986-.209-.16.138-.132.112-.169.145-.104-.196-.057-.107-.089.075-.164.14-.105-.188-.082-.146-.09-.16h-.569l-.03-.14-.006-.029c-.1.026-.198.043-.286.062l-.006.002-.19.034-.24.044.035-.242a109.384 109.384 0 0 1 .029-.2l-.11.055-.153.076-.191.096-.055-.207-.044-.166-.029-.11-.143.02-.071.01-.089.013-.062-.065-.05-.053-.63-.668-.972-.375-.065-.025-.08-.03-.023-.083-.019-.067-.065-.227-.601-.091-.067-.01-.08-.012-.042-.072-.033-.058-.415-.723-.82-.439-.06-.031-.07-.038-.015-.078L7.603 28l-.08-.424-.47-.452-.03-.03-.035-.033-.011-.049-.01-.04-.133-.587-.325-.232-.058-.042-.07-.05v-.085l.001-.221-.365-.35a27.274 27.274 0 0 0-.055-.053l-.066-.063.018-.088.007-.036v-.006a4.002 4.002 0 0 0-.123-.39h-.493v-.932l-.073-.359-.25-.057-.127-.029-.147-.033.023-.15.02-.128.075-.474-.152-.13-.05-.043-.055-.047v-.524l-.151-.667-.013-.054-.014-.062.033-.055.029-.048 1.019-1.707v-.712l-.378-.234-.142-.088-.158-.097.124-.138.111-.125.285-.316-.059-.036-.014-.009-.013-.012-.044-.043-.012-.012-.01-.014-.259-.4-.009-.016-.014-.029-.007-.017a.708.708 0 0 0-.271-.365c-.167-.118-.369-.243-.52-.441a.864.864 0 0 0-.243-.009 2.444 2.444 0 0 0-.108.223c-.055.13-.105.263-.156.399v.001c-.106.275-.201.572-.351.853l-.003.005-.26.451-.278.486v-1.081l.002-1.384c-.636.633-1.453 1.134-2.379 1.205l-.134.012-.02-.134-.04-.27-.017-.12.114-.037c.448-.153.766-.592 1.04-1.033l.053-.087c.134-.229.255-.466.368-.709a13.98 13.98 0 0 1-.553.266l-.129.1-.071-.165-.108-.25-.054-.126.113-.051c.384-.317.633-.792.854-1.279a1.595 1.595 0 0 1-.903.047l-.01-.003-.404-.131-.405-.13.406-.128.4-.124c.614-.271.909-1.03 1.001-1.717v-.004c.194-1.204.74-2.307 1.388-3.311-.237-.018-.524.085-.762.204l-.348.185-.333.179.158-.344.166-.36.007-.012c.539-.911 1.522-1.36 2.45-1.697a.723.723 0 0 0-.023-.008H4.51A1.957 1.957 0 0 0 4.004 6l-.12-.003v-.12l.004-.262v-.11l.11-.01c.659-.09 1.092-.788 1.444-1.393.278-.84-.588-1.6-1.276-2.133l-.076-.056.04-.086.107-.229.042-.088.094.025 3.678.997c.48-.789 1.266-1.318 2.04-1.745l.004-.002C10.847.4 11.721.315 12.54.446l.009.002.008.002.029.01.006.002a7.32 7.32 0 0 0 1.195.362c2.31.483 4.698-.03 6.96-.657l.287-.09.241-.077-.127.219Zm2.76 23.927-.16.84v.559l-1.04 1.238-.04.86-.838-.16-.06.739-1.079.24-.66 1.058-1.118.28-.5-.18-.1.6-.898-.14-.44-.56-.599.18-.26-.38-1.059.38-.639-.38v-1.098l-.979.24v-.92l-.759-.26v-.419c-.24.048-.819-.42-1.079-.66v-.479l-.659-.539c-.007.167-.02.392-.02-.04 0-.431-.16-.979-.24-1.198l.26.2.38-.2 1.358 1.338.66-.1.539.66h1.059l1.438.479.839-.3 2.537.18.74-.66.559.18.18-.539.679-.42.679-.04.58-.779.738.2Zm-1.11.735-.073.097-.12.007-.615.036-.543.336-.116.348-.115.345-.245-.078-.418-.135-.628.56-.082.074-.11-.008-2.482-.176-.788.281-.084.03-1.484-.494h-1.14l-.077-.095-.446-.545-.513.078-.129.02-1.315-1.297-.197.103c.052.217.088.438.1.675l.588.48.095.078v.487c.125.11.257.215.39.309.081.057.165.11.244.152a.795.795 0 0 0 .138.056l.007.001.3-.06v.551l.583.2.176.06v.773l.657-.16.322-.08v1.283l.407.241.944-.338.188-.068.114.166.152.223.418-.125.17-.051.108.139.377.479.544.084c.02-.115.038-.23.057-.346l.052-.307.293.106.425.153.94-.235.604-.97.057-.093.107-.023.891-.198.045-.549.023-.288.284.054.545.104.026-.56.004-.087.057-.068.978-1.166v-.49l.005-.023.114-.603-.336-.09-.474.637ZM8.617 8.752c2.324-1.181 5.196-.351 7.221 1.162l.139.1-.04-.166a3.286 3.286 0 0 0-.745-1.359c.77.086 1.542.194 2.306.332.674.135 1.394.243 1.973.561l.191.13-.084-.215-.3-.77c1.488.537 3.036 1.09 4.666.873l.079-.018-.02-.078-.136-.547c2.002 1.024 4.409 1.19 6.543.508l-.055.056c-.852.71-2.197.566-3.312.428l-.331-.058.226.249c.984.783 1.84 1.936 1.338 3.14l-.077.211.215-.065.488-.148-.19 1.202-.02.12.122.008c.442.045.548.678.496 1.15-.044.487-.186.971-.357 1.441-.274.15-.64.293-.854.184l-.229-.143.068.261.195.74-.881.271-.075.023V18.687h-.597l-.018.082c-.06.28-.086.562-.062.85.022.217.072.476.244.656-.33.098-.71.144-.93-.038l-.171-.162v.971l-1.295.245-.133.025.063.12.31.585-.72.318-.039.029-.753.968c-.598.077-1.313.168-1.78.144l-.061-.062-.067.057-.677.582-2.623.318-2.432.003h-1.082c-.25-.1-.578-.255-.651-.426l-.014-.08-.082.01c-.205.025-.41.05-.615.077-.658-.302-1.5-.624-1.829-1.131v-.083h-.302L9.825 21.46l-.03-.037-.046.008c-.356.056-.735.076-1.071-.023-.165-.05-.312-.149-.346-.299-.037-.15.02-.323.101-.483l.079-.154-.168.044-.583.155V19.82l-.05-.019-.53-.198.077-.078.032-.032-.014-.044-.26-.779-.013-.038-.04-.01-.602-.15.318-.35.034-.037-.024-.045-.144-.269.205-.468.018-.038-.027-.034-.424-.533c.084-.098.155-.203.22-.312.21-.357.346-.768.336-1.19v-.024l-.016-.018-.396-.471c.237-.76.61-1.59 1.328-1.945l-.04-.12-.875.22c.06-.61.337-1.222.827-1.596.514-.399 1.215-.45 1.851-.325l.04.008.02-.035c.233-.415.283-.957.034-1.381-.226-.388-.623-.614-1.028-.756Zm3.144-.258c-.85-.101-1.72-.025-2.513.266.245.15.467.35.623.617l.013.024c.287.516.222 1.138-.046 1.616l-.001.002-.113.195-.221-.042h-.001c-.581-.116-1.211-.063-1.642.274l-.001.002c-.325.246-.548.626-.658 1.04l.485-.122.233-.059.189.563-.203.1c-.583.288-.924.964-1.153 1.654l.304.362.074.088.003.115v.044c.001.463-.15.905-.372 1.284l-.001.001a2.945 2.945 0 0 1-.113.176l.297.374v.001l.124.156-.08.182-.154.352.084.158.11.207-.157.172-.026.028.181.045.178.045.058.173.26.779.033.099.247.092.218.082V20.333l.257-.069.729-.192-.341.671-.012.023c-.058.118-.084.237-.068.28v.004c.002.007.008.022.038.046.03.023.077.046.13.063.285.083.62.067.956.015l.044-.008.15-.025.125.156.957 1.189H11.425v.256c.336.42 1 .672 1.609.95l.542-.069.33-.04.04.246.006.031a.29.29 0 0 0 .041.039.998.998 0 0 0 .131.086c.086.048.183.093.282.134l1.03-.001c.806 0 1.612-.002 2.417-.003l2.53-.307.617-.53.25-.214.157.159c.489.005 1.013-.066 1.53-.131l.688-.883.02-.026.09-.07.029-.012.465-.205-.18-.338-.227-.432.479-.09 1.084-.205v-1.359l.437.414.17.16c.062.049.194.062.346.048a1.843 1.843 0 0 1-.095-.449v-.004a3.147 3.147 0 0 1 .066-.926v-.003l.065-.284H26.919V18.142l.258-.078.642-.198-.13-.5-.235-.893.555.347.217.136c.032.01.14.006.24-.027a1.78 1.78 0 0 0 .278-.113c.15-.425.27-.853.309-1.282v-.004c.056-.383-.086-.892-.265-.864h.01l-.406-.026.045-.282.02-.119.125-.792-.092.028-.71.215.253-.698.004-.012c.455-1.02-.36-2.133-1.26-2.837l-.016-.013-.24-.264-.015-.016a8.756 8.756 0 0 1-2.254-.626l.004.017.084.335-.337.077-.023.004c-1.486.2-2.914-.222-4.252-.693l.093.238.387.991-.69-.467-.18-.121c-.493-.267-1.093-.374-1.7-.492a32.898 32.898 0 0 0-1.868-.294c.185.298.326.623.419.96l.002.009.202.85-.707-.514-.002-.002c-1.15-.854-2.509-1.459-3.922-1.628Zm14.219 11.543a.103.103 0 0 0 .009.008l-.01-.009Zm2.236-3.085a.014.014 0 0 0 .006.003l-.006-.003Zm4.499-5.688ZM21.116.592l-.356.453a4.474 4.474 0 0 0-.076-.025l.006-.009c.156-.12.302-.26.426-.419Z" fill="#4E331C"/>
    <mask id="f" style="mask-type:alpha" maskUnits="userSpaceOnUse" x="0" y="0" width="34" height="33">
        <path d="M20.912.432c-.266.337-.584.534-.915.706.583.056 1.09.307 1.602.53 1.253.546 2.676.71 4.05.792l.273.01-.202.183c-.325.257-.692.357-1.065.407.801.355 1.739.473 2.52.135l.156-.08v.175c-.082.529-.32.919-.543 1.334.927.46 2.095.205 2.932-.378l.164-.12v.203c-.113.775-.748 1.154-1.34 1.465.77.135 1.681-.117 2.49-.301l.123-.032v.126c-.358.98-1.198 1.417-1.934 1.943 1.022.488 2.263.481 3.407.424l.332-.027-.272.191a8.034 8.034 0 0 1-2.207 1.124l.06.103c.227.393.502.76.876.99.37.234.829.32 1.277.472l.122.041-.05.12a.124.124 0 0 1-.074.07.309.309 0 0 1-.094.016l-.072.003-.136.005c-.09.004-.177.01-.263.02a.94.94 0 0 0-.318.085l.505.42.048.04-.005.062c-.084.647.312 1.175.928 1.398l.156.069-.116.125c-.188.206-.449.35-.576.506l.841.42.069.034v.076c0 .018-.002.02-.003.028a.222.222 0 0 1-.012.047.43.43 0 0 1-.077.124.649.649 0 0 1-.126.106 1.248 1.248 0 0 1-.265.129c-.165.059-.33.094-.496.122a3.891 3.891 0 0 0-.724 1.22l-.019.058-.056.021-1.557.593-.86.735.164.267.046.076-.055.069-.143.182.265.22.118.1-.119.097-.324.269c.08.08.127.181.159.27.05.146.071.29.073.441l-.014.058-.14.28.26.273.09.098-.1.088-.133.116.658.16.103.026-.004.105c-.01.38-.028.782 0 1.137l.014.108-.104.033-.403.129.035.599-.01.058-.242.575.247.814.051.17h-1.032a7.769 7.769 0 0 0-.132.958l-.003.04-.024.03-.28.36-.04.051h-.271V26.337h-.32v.879h-.439v.46H26.8v.52l-.169-.044a235.11 235.11 0 0 0-.252-.067 4.77 4.77 0 0 0-.018.552l.006.193-.183-.061-.26-.087-.043.432-.017.168-.16-.053-.3-.1-.222.133-.443.635-.047.068-.082-.01-.344-.048-.136.273-.038.075h-.249l-.04.228-.026.147-.144-.04-.407-.112V30.775H22.923l-.146.391-.034.089h-.704l-.164.378-.045.104-.11-.026-.397-.091-.082.259-.03.096h-.1c-.306-.015-.54-.127-.773-.259a.583.583 0 0 0-.096.047 1.702 1.702 0 0 0-.162.115c-.108.085-.213.18-.31.277l-.095.094-.097-.092-.213-.2-.053.09-.032.054-.061.012-.375.071-.168.186-.084.092-.1-.074-.223-.163-.26.168-.098.063-.079-.086-.334-.367-.429.182-.063.026-.06-.034-.329-.19c-.148.04-.296.082-.443.124l-.066.002-1.072-.226-.228.196-.131.112-.081-.152-.08-.148-.128.109-.128.108-.082-.146-.14-.25h-.531l-.024-.109-.023-.109c-.158.063-.299.082-.455.117l-.19.034.027-.19.025-.176-.163-.07-.221.11-.153.076-.044-.165-.068-.26-.297.043-.072.01-.05-.053-.657-.696-1.009-.388-.065-.025-.019-.067-.095-.333-.71-.106-.067-.01-.034-.059-.44-.764-.863-.46-.059-.032-.013-.066-.091-.476-.508-.488-.03-.029-.009-.04-.148-.648-.376-.269-.059-.042v-.292l-.416-.398-.056-.053.013-.066v-.008a1.538 1.538 0 0 0-.029-.12 8.546 8.546 0 0 0-.147-.433h-.444v-.785l-.098-.477-.352-.08-.127-.03.02-.128.088-.562-.221-.19-.049-.041v-.468l-.156-.684-.013-.055.03-.048 1.038-1.745v-.842l-.453-.279-.142-.088.112-.124.407-.455-.216-.132-.044-.043-.26-.4-.015-.029a.856.856 0 0 0-.327-.439c-.158-.112-.376-.244-.514-.445l-.005-.008a1.126 1.126 0 0 0-.17-.025.734.734 0 0 0-.252.02.85.85 0 0 0-.069.108 2.6 2.6 0 0 0-.088.19c-.056.13-.107.267-.158.404-.106.276-.19.55-.342.837l-.26.452v-2.277c-.65.736-1.493 1.346-2.538 1.434l-.04-.27c.506-.167.873-.69 1.17-1.184.149-.254.282-.52.405-.79.047-.102.092-.204.136-.308a13.503 13.503 0 0 1-.915.46c-.002 0-.004.002-.005.003l-.108-.25.005-.003c.456-.354.774-1.025 1.052-1.67-.336.191-.728.289-1.142.188l-.406-.132.407-.127c.646-.27.992-1.087 1.086-1.826.202-1.258.781-2.378 1.464-3.417-.279-.119-.712.014-1.029.176l-.348.186.165-.36c.603-.995 1.65-1.383 2.638-1.737a.69.69 0 0 0-.284-.15 2.085 2.085 0 0 0-.538-.083l.003-.262c.672-.068 1.184-.831 1.541-1.464.325-.86-.588-1.73-1.315-2.276l.107-.228 3.76 1.015c.48-.83 1.255-1.342 2.042-1.78.738-.377 1.572-.457 2.379-.33l.029.009c2.59 1.034 5.57.444 8.223-.3l.288-.092-.152.262Zm1.677 24.294-.68.04-.678.42-.18.538-.56-.18-.739.66-2.537-.18-.839.3-1.438-.48h-1.06l-.539-.659-.659.1-1.358-1.338-.38.2-.26-.2c.08.22.24.767.24 1.198 0 .432.014.207.02.04l.66.54v.479c.26.24.838.707 1.078.66v.419l.76.26v.919l.978-.24v1.098l.64.38 1.058-.38.26.38.6-.18.439.56.899.14.1-.6.5.18 1.118-.28.66-1.058 1.078-.24.06-.74.84.16.039-.859 1.039-1.238v-.56l.16-.839-.74-.2-.579.78ZM15.84 9.914C13.814 8.4 10.942 7.57 8.62 8.752c.405.142.803.368 1.028.756.25.424.2.966-.034 1.381l-.02.035-.04-.007c-.636-.125-1.337-.075-1.85.324-.491.374-.767.986-.827 1.597l.874-.22.04.12c-.717.354-1.09 1.184-1.328 1.944l.397.471.015.018v.024c.01.422-.126.833-.336 1.19a2.229 2.229 0 0 1-.22.312l.424.533.027.034-.017.038-.206.468.144.27.024.044-.034.037-.317.35.601.15.04.01.012.038.261.779.015.044-.033.032-.078.078.531.198.05.019V20.67l.583-.156.168-.044-.079.154c-.08.16-.137.333-.1.483.034.15.18.249.345.3.336.098.715.078 1.071.022l.047-.008.03.037 1.035 1.287h.303v.082c.329.507 1.17.83 1.828 1.13.205-.025.41-.05.616-.077l.082-.01.013.081c.073.17.4.325.651.427a3517706.87 3517706.87 0 0 1 3.514-.004l2.623-.318.677-.582.067-.057.062.062c.467.024 1.182-.067 1.779-.144l.753-.968.038-.03.722-.317-.31-.585-.064-.12.133-.024 1.296-.246-.001-.735v-.236l.171.162c.22.182.6.136.93.038-.172-.18-.222-.44-.244-.655a2.885 2.885 0 0 1 .062-.85l.018-.082h.598V18.334l.074-.023.881-.27-.194-.74-.069-.262.229.143c.213.109.58-.034.854-.184.17-.47.313-.954.358-1.441.05-.472-.055-1.105-.497-1.15l-.121-.008.019-.12.19-1.202-.488.148-.214.065.076-.21c.503-1.205-.354-2.357-1.338-3.141l-.226-.249.33.058c1.117.138 2.46.283 3.313-.428l.055-.056c-2.134.683-4.541.516-6.543-.508l.136.547.02.078-.079.018c-1.63.217-3.178-.336-4.666-.873l.3.77.084.214-.19-.129c-.58-.318-1.3-.426-1.974-.56a34.372 34.372 0 0 0-2.306-.333c.354.385.606.852.745 1.359l.04.166-.139-.1Z" fill="#734F2F"/>
    </mask>
    <mask id="g" style="mask-type:alpha" maskUnits="userSpaceOnUse" x="0" y="0" width="34" height="33">
        <path d="M20.912.432c-.266.337-.584.534-.915.706.192.018.376.058.555.111l-.13.225.168-.213c.349.107.677.263 1.01.407 1.252.546 2.675.71 4.05.792l.272.01-.202.183c-.325.257-.692.357-1.065.407.801.355 1.739.473 2.52.135l.156-.08v.175c-.082.529-.32.919-.543 1.334.927.46 2.095.205 2.932-.378l.164-.12v.203c-.113.775-.748 1.154-1.34 1.465.77.135 1.681-.117 2.49-.301l.123-.032v.126c-.358.98-1.198 1.417-1.934 1.943 1.022.488 2.263.481 3.407.424l.332-.027-.272.191a8.034 8.034 0 0 1-2.207 1.124l.06.103c.227.393.502.76.876.99.37.234.829.32 1.277.472l.122.041-.05.12a.124.124 0 0 1-.074.07.309.309 0 0 1-.094.016l-.072.003-.136.005c-.09.004-.177.01-.263.02a.94.94 0 0 0-.318.085l.505.42.048.04-.005.062c-.084.647.312 1.175.928 1.398l.156.069-.116.125c-.188.206-.449.35-.576.506l.841.42.069.034v.076c0 .018-.002.02-.003.028a.222.222 0 0 1-.012.047.43.43 0 0 1-.077.124.649.649 0 0 1-.126.106 1.248 1.248 0 0 1-.265.129c-.165.059-.33.094-.496.122a3.891 3.891 0 0 0-.724 1.22l-.019.058-.056.021-1.557.593-.86.735.164.267.046.076-.055.069-.143.182.265.22.118.1-.119.097-.324.269c.08.08.127.181.159.27.05.146.071.29.073.441l-.014.058-.14.28.26.273.09.098-.1.088-.133.116.658.16.103.026-.004.105c-.01.38-.028.782 0 1.137l.014.108-.104.033-.403.129.035.599-.01.058-.242.575.247.814.051.17h-1.032a7.769 7.769 0 0 0-.132.958l-.003.04-.024.03-.28.36-.04.051h-.271V26.337h-.32v.879h-.439v.46H26.8v.52l-.169-.044a235.11 235.11 0 0 0-.252-.067 4.77 4.77 0 0 0-.018.552l.006.193-.183-.061-.26-.087-.043.432-.017.168-.16-.053-.3-.1-.222.133-.443.635-.047.068-.082-.01-.344-.048-.136.273-.038.075h-.249l-.04.228-.026.147-.144-.04-.407-.112V30.775H22.923l-.146.391-.034.089h-.704l-.164.378-.045.104-.11-.026-.397-.091-.082.259-.03.096h-.1c-.306-.015-.54-.127-.773-.259a.583.583 0 0 0-.096.047 1.702 1.702 0 0 0-.162.115c-.108.085-.213.18-.31.277l-.095.094-.097-.092-.213-.2-.053.09-.032.054-.061.012-.375.071-.168.186-.084.092-.1-.074-.223-.163-.26.168-.098.063-.079-.086-.334-.367-.429.182-.063.026-.06-.034-.329-.19c-.148.04-.296.082-.443.124l-.066.002-1.072-.226-.228.196-.131.112-.081-.152-.08-.148-.128.109-.128.108-.082-.146-.14-.25h-.531l-.024-.109-.023-.109c-.158.063-.299.082-.455.117l-.19.034.027-.19.025-.176-.163-.07-.221.11-.153.076-.044-.165-.068-.26-.297.043-.072.01-.05-.053-.657-.696-1.009-.388-.065-.025-.019-.067-.095-.333-.71-.106-.067-.01-.034-.059-.44-.764-.863-.46-.059-.032-.013-.066-.091-.476-.508-.488-.03-.029-.009-.04-.148-.648-.376-.269-.059-.042v-.292l-.416-.398-.056-.053.013-.066v-.008a1.538 1.538 0 0 0-.029-.12 8.546 8.546 0 0 0-.147-.433h-.444v-.785l-.098-.477-.352-.08-.127-.03.02-.128.088-.562-.221-.19-.049-.041v-.468l-.156-.684-.013-.055.03-.048 1.038-1.745v-.842l-.453-.279-.142-.088.112-.124.407-.455-.216-.132-.044-.043-.26-.4-.015-.029a.856.856 0 0 0-.327-.439c-.158-.112-.376-.244-.514-.445l-.005-.008a1.126 1.126 0 0 0-.17-.025.734.734 0 0 0-.252.02.85.85 0 0 0-.069.108 2.6 2.6 0 0 0-.088.19c-.056.13-.107.267-.158.404-.106.276-.19.55-.342.837l-.26.452v-2.277c-.65.736-1.493 1.346-2.538 1.434l-.04-.27c.506-.167.873-.69 1.17-1.184.149-.254.282-.52.405-.79.047-.102.092-.204.136-.308a13.503 13.503 0 0 1-.915.46c-.002 0-.004.002-.005.003l-.108-.25.005-.003c.456-.354.774-1.025 1.052-1.67-.336.191-.728.289-1.142.188l-.406-.132.407-.127c.646-.27.992-1.087 1.086-1.826.202-1.258.781-2.378 1.464-3.417-.279-.119-.712.014-1.029.176l-.348.186.165-.36c.603-.995 1.65-1.383 2.638-1.737a.69.69 0 0 0-.284-.15 2.085 2.085 0 0 0-.538-.083l.003-.262c.672-.068 1.184-.831 1.541-1.464.325-.86-.588-1.73-1.315-2.276l.107-.228 3.76 1.015c.48-.83 1.255-1.342 2.042-1.78.738-.377 1.572-.457 2.379-.33l.029.009c2.59 1.034 5.57.444 8.223-.3l.288-.092-.152.262Zm-.331-.015c-2.207.605-4.54 1.087-6.838.614a7.534 7.534 0 0 1-1.226-.369l-.018-.006c-.78-.121-1.602-.037-2.302.323-.789.436-1.555.965-1.996 1.74l-.043.075-.083-.022-3.668-.986-.026.057c.686.549 1.599 1.286 1.282 2.351l-.003.01-.005.007c-.353.588-.74 1.32-1.524 1.505v.046c.15.011.3.036.448.08a.79.79 0 0 1 .338.183l.135.138-.181.064c-.999.35-2.034.777-2.567 1.68l-.005.01.015-.008h.003c.334-.156.702-.328 1.137-.181l.141.06-.084.129c-.68 1.032-1.25 2.155-1.442 3.367l.001-.005c-.105.738-.387 1.578-1.165 1.935l-.012.004c.347.085.717.006 1.033-.177l.355-.202-.162.375c-.256.575-.502 1.193-1.009 1.654l.012.026a13.032 13.032 0 0 0 .773-.396l.363-.206-.164.383c-.044.104-.09.208-.137.312a8.812 8.812 0 0 1-.41.802l-.002.002c-.277.448-.586.956-1.132 1.202l.003.022c.902-.117 1.7-.681 2.306-1.374l.258-.29v2.1c.107-.21.186-.437.273-.671l.04-.107c.05-.136.102-.273.16-.411.028-.066.058-.133.093-.2a.957.957 0 0 1 .057-.097l.03-.04.012-.012.024-.024.032-.01c.134-.04.21-.03.31-.027a1.251 1.251 0 0 1 .197.03l.054.013.032.045.006.008.002.003c.107.157.283.273.477.407.174.117.313.308.38.504l.006.012.246.378.02.018.202.124.158.097-.124.137-.395.441.438.27.074.045v.087l.001.842v.044l-.022.036-1.033 1.74.155.676.004.018V22.239c.072.06.143.122.214.183l.068.058-.014.088-.084.543.332.075.102.023.021.102.1.477.003.017v.637h.394l.04.107a8.528 8.528 0 0 1 .151.445 1.697 1.697 0 0 1 .034.14l.002.017.002.024v.002l.407.388.051.05v.276l.366.26.052.038.014.06.147.64.502.483.038.037.01.052.09.462.852.454.043.023.024.042.433.75.696.104.109.017.03.105.091.318.995.381.037.014.027.029.646.682.279-.04.154-.022.039.15.057.217.183-.091.073-.037.075.033.164.071.122.053-.02.132-.017.123c.14-.029.262-.052.372-.097l.194-.076.043.203.017.08.388-.001h.104l.05.09.118.208.093-.08.168-.141.104.194.055.104.19-.163.068-.058.086.019 1.05.22.023-.001.422-.12.074-.02.065.038.311.18.41-.174.118-.05.087.095.309.339c.076-.05.152-.1.228-.148l.106-.069.101.075.19.139.142-.156.041-.046.06-.011.353-.068.043-.072.116-.2.169.158.18.17c.094-.09.19-.177.294-.259.056-.044.114-.087.181-.128a.736.736 0 0 1 .137-.066l.076-.023.07.039c.217.124.425.213.646.231l.07-.222.052-.165.168.039.355.081.147-.339.05-.113h.696l.133-.358.046-.123h.243v-.358l.24.067.35.096.029-.169.028-.158H23.973l.121-.242.061-.123.136.019.31.041c.14-.202.28-.405.422-.607l.023-.034.035-.021.222-.134.076-.046.084.028.231.077.036-.359.024-.242.23.077.179.06c-.002-.094 0-.188.003-.283a2.523 2.523 0 0 1 .018-.217l.032-.218.211.056.175.046v-.462h.618v-.461h.438V26.137l.198.001h.12V25.558h.373l.247-.319c.03-.317.062-.64.133-.965l.036-.158h.92l-.22-.723-.021-.07.028-.067.232-.555a2.8 2.8 0 0 1 .002-.012l-.034-.575-.009-.16.151-.047.347-.112c-.024-.357-.01-.704 0-1.044l-.597-.145-.39-.095.302-.264.07-.061-.201-.214-.1-.107.065-.13.128-.258.002-.008a1.174 1.174 0 0 0-.062-.35.507.507 0 0 0-.108-.19l-.165-.164.179-.147.247-.205-.188-.156-.158-.132.127-.161.107-.136-.134-.217-.094-.155.138-.117.858-.736.029-.024.034-.013 1.518-.58c.173-.461.428-.886.75-1.256l.052-.059.077-.012c.15-.025.295-.057.43-.103l.027-.01c.083-.03.156-.063.22-.105.03-.02.054-.04.074-.061l.008-.009.008-.01-.76-.378-.245-.123.172-.211c.177-.196.345-.3.478-.413-.558-.25-1.004-.87-.929-1.514l-.462-.383-.252-.21.288-.158c.151-.075.261-.094.395-.11a3.259 3.259 0 0 1-.8-.335c-.383-.237-.655-.582-.873-.934-.909.647-1.982.572-2.95.466.755.705 1.434 1.732 1.139 2.836l.213-.065.397-.12-.065.41-.168 1.061c.298.1.467.407.522.622.074.268.082.525.056.784l-.005.045c-.053.512-.2.996-.367 1.457l-.033.092-.087.047c-.242.107-.464.282-.824.248l.131.5.064.241-.239.074-.772.237V18.947h-.645c-.038.218-.05.435-.033.65.02.213.074.399.173.498l.295.308-.408.12c-.266.065-.576.17-.916.048v.69l-.211.04-1.082.205.208.393.131.247-.256.113-.684.3-.728.937-.066.084-.106.014c-.594.072-1.181.165-1.826.145h-.023l-.6.515-.06.051-.078.01-2.623.318-.03.002-2.433.002-1.081.002h-.051l-.047-.02a3.403 3.403 0 0 1-.39-.182c-.109-.07-.23-.118-.343-.283-.167.02-.333.042-.5.063l-.073.009-.067-.031c-.628-.31-1.367-.496-1.91-1.19h-.238l-.078-.097-.971-1.207c-.343.047-.71.063-1.082-.045h-.003c-.185-.061-.44-.175-.522-.488a.804.804 0 0 1-.005-.312l-.247.065-.326.087v-.337l-.001-.672-.412-.154-.377-.14.281-.283-.192-.573-.502-.125-.422-.105.292-.322.229-.252-.082-.152-.06-.111.052-.116.159-.364-.353-.443-.133-.168.14-.163c.06-.072.117-.152.17-.238l.022-.036c.18-.307.295-.65.3-.987l-.35-.418-.093-.109.043-.136c.165-.51.376-1.071.748-1.52l-.023.006-.358.09.036-.368c.066-.657.353-1.321.901-1.757l.025-.02c.56-.431 1.272-.496 1.906-.4.14-.326.143-.714-.026-.996-.174-.304-.512-.511-.89-.641l-.575-.2.543-.277c1.023-.525 2.204-.677 3.322-.543 1.31.158 2.549.653 3.643 1.36a2.934 2.934 0 0 0-.464-.673l-.471-.51.69.076c.778.086 1.553.196 2.325.335h.004l.187.037c.465.092.956.175 1.432.357l-.132-.339-.207-.532.538.194c1.422.517 2.88 1.02 4.335.884l-.087-.347-.137-.554.508.26c1.935.99 4.275 1.155 6.345.492l.684-.219a7.79 7.79 0 0 0 1.14-.595c-1.01.032-2.061-.009-3.034-.462l-.36-.172.325-.23c.682-.474 1.379-.9 1.725-1.553-.727.17-1.486.37-2.31.243l-.694-.122.624-.327c.474-.24.913-.533 1.11-.938-.855.476-1.924.656-2.864.201l-.228-.113.121-.223c.188-.344.364-.662.46-.995-.831.263-1.723.107-2.478-.224l-.81-.358.878-.119a2.41 2.41 0 0 0 .546-.132c-1.237-.092-2.494-.27-3.67-.776-.524-.23-1.016-.463-1.525-.509l-.87-.085.776-.402c.27-.138.51-.293.703-.49Zm-9.74 23.324.128.098.232-.122.168-.089.135.134 1.266 1.247.53-.08.147-.023.094.115.461.564h.978l1.393.464.755-.27.051-.018.055.004 2.427.172.658-.586.11-.099.142.046.315.1.098-.295.03-.09.815-.503.066-.004.558-.032.507-.682.106-.142 1.142.308-.045.237-.038.2-.117.615v.63l-.061.072-.983 1.171-.035.771-.014.3-.294-.056-.555-.106-.037.45-.016.192-.187.041-.972.216-.601.967-.056.089-1.297.324-.075-.027-.206-.074-.049.292-.042.254-1.254-.195-.063-.08-.33-.421-.43.129-.182.054-.107-.156-.147-.214-.87.312-.115.04-.871-.517v-.915l-.658.16-.321.08v-1.065l-.584-.2-.175-.06v-.381c-.063-.024-.111-.054-.166-.078a2.757 2.757 0 0 1-.303-.187 5.367 5.367 0 0 1-.527-.427l-.083-.077v-.47l-.281-.23-.004.002a.262.262 0 0 1-.253.003.257.257 0 0 1-.112-.119l-.004-.01a.26.26 0 0 1-.019-.068l-.002-.022-.001-.013c-.004-.097-.003-.165-.004-.246-.004-.352-.101-.755-.224-1.11l-.305-.838.708.544Zm11.748.985-.68.04-.678.42-.18.538-.56-.18-.739.66-2.537-.18-.839.3-1.438-.48h-1.06l-.539-.659-.659.1-1.358-1.338-.38.2-.26-.2c.08.22.24.767.24 1.198 0 .432.014.207.02.04l.66.54v.479c.26.24.838.707 1.078.66v.419l.76.26v.919l.978-.24v1.098l.64.38 1.058-.38.26.38.6-.18.439.56.899.14.1-.6.5.18 1.118-.28.66-1.058 1.078-.24.06-.74.84.16.039-.859 1.039-1.238v-.56l.16-.839-.74-.2-.579.78ZM15.84 9.914C13.814 8.4 10.942 7.57 8.62 8.752c.405.142.803.368 1.028.756.25.424.2.966-.034 1.381l-.02.035-.04-.007c-.636-.125-1.337-.075-1.85.324-.491.374-.767.986-.827 1.597l.874-.22.04.12c-.717.354-1.09 1.184-1.328 1.944l.397.471.015.018v.024c.01.422-.126.833-.336 1.19a2.229 2.229 0 0 1-.22.312l.424.533.027.034-.017.038-.206.468.144.27.024.044-.034.037-.317.35.601.15.04.01.012.038.261.779.015.044-.033.032-.078.078.531.198.05.019V20.67l.583-.156.168-.044-.079.154c-.08.16-.137.333-.1.483.034.15.18.249.345.3.336.098.715.078 1.071.022l.047-.008.03.037 1.035 1.287h.303v.082c.329.507 1.17.83 1.828 1.13.205-.025.41-.05.616-.077l.082-.01.013.081c.073.17.4.325.651.427a3517706.87 3517706.87 0 0 1 3.514-.004l2.623-.318.677-.582.067-.057.062.062c.467.024 1.182-.067 1.779-.144l.753-.968.038-.03.722-.317-.31-.585-.064-.12.133-.024 1.296-.246-.001-.735v-.236l.171.162c.22.182.6.136.93.038-.172-.18-.222-.44-.244-.655a2.885 2.885 0 0 1 .062-.85l.018-.082h.598V18.334l.074-.023.881-.27-.194-.74-.069-.262.229.143c.213.109.58-.034.854-.184.17-.47.313-.954.358-1.441.05-.472-.055-1.105-.497-1.15l-.121-.008.019-.12.19-1.202-.488.148-.214.065.076-.21c.503-1.205-.354-2.357-1.338-3.141l-.226-.249.33.058c1.117.138 2.46.283 3.313-.428l.055-.056c-2.134.683-4.541.516-6.543-.508l.136.547.02.078-.079.018c-1.63.217-3.178-.336-4.666-.873l.3.77.084.214-.19-.129c-.58-.318-1.3-.426-1.974-.56a34.372 34.372 0 0 0-2.306-.333c.354.385.606.852.745 1.359l.04.166-.139-.1ZM8.081 21.168v.002-.004.002Zm-4.07-5.316ZM20.853.34l-.048.015-.003.001H20.8l.028.027.025-.043Z" fill="#4E331C"/>
    </mask>
    <g mask="url(#g)">
        <path d="M12.18 2.65c-3.695.42-4.528-.086-4.414-.38L3.05-.565-.166 3.21l-6.732 10.488 1.538 14.783 20.577 6.373 19.179-4.435-4.375-8.05-.2-1-.84.32-.439-1.378-.5.839-.818.22c.192-.736-.08-1.426-.24-1.679l-.56.62-15.722.34-2.217-5.894 7.651-4.495c-2.996-3.776-6.5-3.596-7.651-3.776.575-.959 2.996-1.079 8.01-.819-4.694-1.578-8.636-.76-9.309-.64-.133.147-.32.28 0-.359.32-.64 4.482-1.798 4.995-2.018Z" fill="#694629"/>
        <path opacity=".1" d="m2.731 18.972-1.298-2.118-2.158 1.519-2.177-3.177 1.738-8.19c1.465-.247 4.65-.76 5.673-.84 1.023-.08 1.199.9 1.159 1.399-.815 0-1.112.852-1.159 1.278 1.694-.095 1.905 1.226 1.798 1.898-.927-.175-1.585.233-1.798.46-.943.943.1 1.911.74 2.277-.496.224-.926.8-1.08 1.059-.287.815.454 1.885.86 2.317l-.86.58-1.438 1.538ZM6.247 22.448 4.41 20.39H.214l4.196 9.97 13.065 7.59 7.751-1.178 6.513-10.208-1.698-4.436-.24-.719-.879.18-.38-1.159-.1 1.439-.539 1.159-.22 2.457h-.839l-.998 1.378v1.159h-.62V31.818l-7.332 5.454-8.61-6.913v-1.438l-.46-1.259-.579-2.177-.54-.4v-.859l-.439-.48v-.898l-1.019-.4Z" fill="#000"/>
    </g>
    <path d="m27.384 10.541-.88-.938c1.473.284 3.217-.076 4.396-.5-1.08 1.339-2.688 1.579-3.516 1.438Z" fill="#4E331C"/>
</svg>
