<svg width="1202" height="8" fill="none" xmlns="http://www.w3.org/2000/svg">
    <path d="M0 .5c5.799 0 4.701 4 10.5 4 5.626 0 4.76-3.765 10-3.99m0 0c.16-.006.327-.01.5-.01m-.5.01C20.34.504 20.173.5 20 .5m.5.01c5.24.225 4.374 3.99 10 3.99S35.26.735 40.5.51m0 0c.16-.006.327-.01.5-.01m-.5.01C40.34.504 40.173.5 40 .5m.5.01c5.24.225 4.374 3.99 10 3.99S55.26.735 60.5.51m0 0c.16-.006.327-.01.5-.01m-.5.01C60.34.504 60.173.5 60 .5m.5.01c5.24.225 4.374 3.99 10 3.99S75.26.735 80.5.51m0 0c.16-.006.327-.01.5-.01m-.5.01C80.34.504 80.173.5 80 .5m.5.01c5.24.225 4.374 3.99 10 3.99s4.76-3.765 10-3.99m0 0c.161-.006.327-.01.5-.01m-.5.01a11.69 11.69 0 0 0-.5-.01m.5.01c5.24.225 4.374 3.99 10 3.99s4.76-3.765 10-3.99m0 0c.161-.006.327-.01.5-.01m-.5.01a11.69 11.69 0 0 0-.5-.01m.5.01c5.24.225 4.374 3.99 10 3.99s4.76-3.765 10-3.99m0 0c.161-.006.327-.01.5-.01m-.5.01a11.69 11.69 0 0 0-.5-.01m.5.01c5.24.225 4.374 3.99 10 3.99s4.76-3.765 10-3.99m0 0c.161-.006.327-.01.5-.01m-.5.01a11.69 11.69 0 0 0-.5-.01m.5.01c5.24.225 4.374 3.99 10 3.99s4.76-3.765 10-3.99m0 0c.161-.006.327-.01.5-.01m-.5.01a11.69 11.69 0 0 0-.5-.01m.5.01c5.24.225 4.374 3.99 10 3.99s4.76-3.765 10-3.99m0 0c.161-.006.327-.01.5-.01m-.5.01a11.69 11.69 0 0 0-.5-.01m.5.01c5.24.225 4.374 3.99 10 3.99s4.76-3.765 10-3.99m0 0c.161-.006.327-.01.5-.01m-.5.01a11.69 11.69 0 0 0-.5-.01m.5.01c5.24.225 4.374 3.99 10 3.99s4.76-3.765 10-3.99m0 0c.161-.006.327-.01.5-.01m-.5.01a11.69 11.69 0 0 0-.5-.01m.5.01c5.24.225 4.374 3.99 10 3.99s4.76-3.765 10-3.99m0 0c.161-.006.327-.01.5-.01m-.5.01a11.69 11.69 0 0 0-.5-.01m.5.01c5.24.225 4.374 3.99 10 3.99s4.76-3.765 10-3.99m0 0c.161-.006.327-.01.5-.01m-.5.01a11.69 11.69 0 0 0-.5-.01m.5.01c5.24.225 4.374 3.99 10 3.99s4.76-3.765 10-3.99m0 0c.161-.006.327-.01.5-.01m-.5.01a11.69 11.69 0 0 0-.5-.01m.5.01c5.24.225 4.374 3.99 10 3.99s4.76-3.765 10-3.99m0 0c.161-.006.327-.01.5-.01m-.5.01a11.69 11.69 0 0 0-.5-.01m.5.01c5.24.225 4.374 3.99 10 3.99s4.76-3.765 10-3.99m0 0c.161-.006.327-.01.5-.01m-.5.01a11.69 11.69 0 0 0-.5-.01m.5.01c5.24.225 4.374 3.99 10 3.99s4.76-3.765 10-3.99m0 0c.161-.006.327-.01.5-.01m-.5.01a11.69 11.69 0 0 0-.5-.01m.5.01c5.24.225 4.374 3.99 10 3.99s4.76-3.765 10-3.99m0 0c.161-.006.327-.01.5-.01m-.5.01a11.69 11.69 0 0 0-.5-.01m.5.01c5.24.225 4.374 3.99 10 3.99s4.76-3.765 10-3.99m0 0c.161-.006.327-.01.5-.01m-.5.01a11.69 11.69 0 0 0-.5-.01m.5.01c5.24.225 4.374 3.99 10 3.99s4.76-3.765 10-3.99m0 0c.161-.006.327-.01.5-.01m-.5.01a11.69 11.69 0 0 0-.5-.01m.5.01c5.24.225 4.374 3.99 10 3.99s4.76-3.765 10-3.99m0 0c.161-.006.327-.01.5-.01m-.5.01a11.69 11.69 0 0 0-.5-.01m.5.01c5.24.225 4.374 3.99 10 3.99s4.76-3.765 10-3.99m0 0c.161-.006.327-.01.5-.01m-.5.01a11.69 11.69 0 0 0-.5-.01m.5.01c5.24.225 4.374 3.99 10 3.99s4.76-3.765 10-3.99m0 0c.161-.006.327-.01.5-.01m-.5.01a11.69 11.69 0 0 0-.5-.01m.5.01c5.24.225 4.374 3.99 10 3.99s4.76-3.765 10-3.99m0 0c.161-.006.327-.01.5-.01m-.5.01a11.69 11.69 0 0 0-.5-.01m.5.01c5.24.225 4.374 3.99 10 3.99s4.76-3.765 10-3.99m0 0c.161-.006.327-.01.5-.01m-.5.01a11.69 11.69 0 0 0-.5-.01m.5.01c5.24.225 4.374 3.99 10 3.99s4.76-3.765 10-3.99m0 0c.161-.006.327-.01.5-.01m-.5.01a11.69 11.69 0 0 0-.5-.01m.5.01c5.24.225 4.374 3.99 10 3.99s4.76-3.765 10-3.99m0 0c.161-.006.327-.01.5-.01m-.5.01a11.69 11.69 0 0 0-.5-.01m.5.01c5.24.225 4.374 3.99 10 3.99s4.76-3.765 10-3.99m0 0c.161-.006.327-.01.5-.01m-.5.01a11.69 11.69 0 0 0-.5-.01m.5.01c5.24.225 4.374 3.99 10 3.99 5.799 0 4.701-4 10.5-4s4.701 4 10.5 4c5.626 0 4.76-3.765 10-3.99m0 0c.161-.006.327-.01.5-.01m-.5.01a11.69 11.69 0 0 0-.5-.01m.5.01c5.24.225 4.374 3.99 10 3.99s4.76-3.765 10-3.99m0 0c.161-.006.327-.01.5-.01m-.5.01a11.69 11.69 0 0 0-.5-.01m.5.01c5.24.225 4.374 3.99 10 3.99s4.76-3.765 10-3.99m0 0c.161-.006.327-.01.5-.01m-.5.01a11.69 11.69 0 0 0-.5-.01m.5.01c5.24.225 4.374 3.99 10 3.99s4.76-3.765 10-3.99m0 0c.161-.006.327-.01.5-.01m-.5.01a11.69 11.69 0 0 0-.5-.01m.5.01c5.24.225 4.374 3.99 10 3.99s4.76-3.765 10-3.99m0 0c.161-.006.327-.01.5-.01m-.5.01a11.69 11.69 0 0 0-.5-.01m.5.01c5.24.225 4.374 3.99 10 3.99s4.76-3.765 10-3.99m0 0c.161-.006.327-.01.5-.01m-.5.01a11.69 11.69 0 0 0-.5-.01m.5.01c5.24.225 4.374 3.99 10 3.99s4.76-3.765 10-3.99m0 0c.161-.006.327-.01.5-.01m-.5.01a11.69 11.69 0 0 0-.5-.01m.5.01c5.24.225 4.374 3.99 10 3.99s4.76-3.765 10-3.99m0 0c.161-.006.327-.01.5-.01m-.5.01a11.69 11.69 0 0 0-.5-.01m.5.01c5.24.225 4.374 3.99 10 3.99s4.76-3.765 10-3.99m0 0c.161-.006.327-.01.5-.01m-.5.01a11.69 11.69 0 0 0-.5-.01m.5.01c5.24.225 4.374 3.99 10 3.99s4.76-3.765 10-3.99m0 0c.161-.006.327-.01.5-.01m-.5.01a11.69 11.69 0 0 0-.5-.01m.5.01c5.24.225 4.374 3.99 10 3.99s4.76-3.765 10-3.99m0 0c.161-.006.327-.01.5-.01m-.5.01a11.69 11.69 0 0 0-.5-.01m.5.01c5.24.225 4.374 3.99 10 3.99s4.76-3.765 10-3.99m0 0c.161-.006.327-.01.5-.01m-.5.01a11.69 11.69 0 0 0-.5-.01m.5.01c5.24.225 4.374 3.99 10 3.99s4.76-3.765 10-3.99m0 0c.161-.006.327-.01.5-.01m-.5.01a11.69 11.69 0 0 0-.5-.01m.5.01c5.24.225 4.374 3.99 10 3.99s4.76-3.765 10-3.99m0 0c.161-.006.327-.01.5-.01m-.5.01a11.69 11.69 0 0 0-.5-.01m.5.01c5.24.225 4.374 3.99 10 3.99s4.76-3.765 10-3.99m0 0c.161-.006.327-.01.5-.01m-.5.01a11.69 11.69 0 0 0-.5-.01m.5.01c5.24.225 4.374 3.99 10 3.99s4.76-3.765 10-3.99m0 0c.161-.006.327-.01.5-.01m-.5.01a11.69 11.69 0 0 0-.5-.01m.5.01c5.24.225 4.374 3.99 10 3.99s4.76-3.765 10-3.99m0 0c.161-.006.327-.01.5-.01m-.5.01a11.69 11.69 0 0 0-.5-.01m.5.01c5.24.225 4.374 3.99 10 3.99s4.76-3.765 10-3.99m0 0c.161-.006.327-.01.5-.01m-.5.01a11.69 11.69 0 0 0-.5-.01m.5.01c5.24.225 4.374 3.99 10 3.99s4.76-3.765 10-3.99m0 0c.161-.006.327-.01.5-.01m-.5.01a11.69 11.69 0 0 0-.5-.01m.5.01c5.24.225 4.374 3.99 10 3.99s4.76-3.765 10-3.99m0 0c.16-.006.33-.01.5-.01m-.5.01c-.16-.006-.33-.01-.5-.01m.5.01c5.24.225 4.37 3.99 10 3.99s4.76-3.765 10-3.99m0 0c.16-.006.33-.01.5-.01m-.5.01c-.16-.006-.33-.01-.5-.01m.5.01c5.24.225 4.37 3.99 10 3.99s4.76-3.765 10-3.99m0 0c.16-.006.33-.01.5-.01m-.5.01c-.16-.006-.33-.01-.5-.01m.5.01c5.24.225 4.37 3.99 10 3.99s4.76-3.765 10-3.99m0 0c.16-.006.33-.01.5-.01m-.5.01c-.16-.006-.33-.01-.5-.01m.5.01c5.24.225 4.37 3.99 10 3.99s4.76-3.765 10-3.99m0 0c.16-.006.33-.01.5-.01m-.5.01c-.16-.006-.33-.01-.5-.01m.5.01c5.24.225 4.37 3.99 10 3.99s4.76-3.765 10-3.99m0 0c.16-.006.33-.01.5-.01m-.5.01c-.16-.006-.33-.01-.5-.01m.5.01c5.24.225 4.37 3.99 10 3.99s4.76-3.765 10-3.99m0 0c.16-.006.33-.01.5-.01m-.5.01c-.16-.006-.33-.01-.5-.01m.5.01c5.24.225 4.37 3.99 10 3.99s4.76-3.765 10-3.99m0 0c.16-.006.33-.01.5-.01m-.5.01c-.16-.006-.33-.01-.5-.01m.5.01c5.24.225 4.37 3.99 10 3.99s4.76-3.765 10-3.99m0 0c.16-.006.33-.01.5-.01m-.5.01c-.16-.006-.33-.01-.5-.01m.5.01c5.24.225 4.37 3.99 10 3.99s4.76-3.765 10-3.99m0 0c.16-.006.33-.01.5-.01m-.5.01c-.16-.006-.33-.01-.5-.01m.5.01c5.24.225 4.37 3.99 10 3.99 5.8 0 4.7-4 10.5-4" stroke="#1D39FF"/>
    <path d="M0 3.5c5.799 0 4.701 4 10.5 4 5.626 0 4.76-3.765 10-3.99m0 0c.16-.006.327-.01.5-.01m-.5.01c-.16-.006-.327-.01-.5-.01m.5.01c5.24.225 4.374 3.99 10 3.99s4.76-3.765 10-3.99m0 0c.16-.006.327-.01.5-.01m-.5.01c-.16-.006-.327-.01-.5-.01m.5.01c5.24.225 4.374 3.99 10 3.99s4.76-3.765 10-3.99m0 0c.16-.006.327-.01.5-.01m-.5.01c-.16-.006-.327-.01-.5-.01m.5.01c5.24.225 4.374 3.99 10 3.99s4.76-3.765 10-3.99m0 0c.16-.006.327-.01.5-.01m-.5.01c-.16-.006-.327-.01-.5-.01m.5.01c5.24.225 4.374 3.99 10 3.99s4.76-3.765 10-3.99m0 0c.161-.006.327-.01.5-.01m-.5.01c-.161-.006-.327-.01-.5-.01m.5.01c5.24.225 4.374 3.99 10 3.99s4.76-3.765 10-3.99m0 0c.161-.006.327-.01.5-.01m-.5.01c-.161-.006-.327-.01-.5-.01m.5.01c5.24.225 4.374 3.99 10 3.99s4.76-3.765 10-3.99m0 0c.161-.006.327-.01.5-.01m-.5.01c-.161-.006-.327-.01-.5-.01m.5.01c5.24.225 4.374 3.99 10 3.99s4.76-3.765 10-3.99m0 0c.161-.006.327-.01.5-.01m-.5.01c-.161-.006-.327-.01-.5-.01m.5.01c5.24.225 4.374 3.99 10 3.99s4.76-3.765 10-3.99m0 0c.161-.006.327-.01.5-.01m-.5.01c-.161-.006-.327-.01-.5-.01m.5.01c5.24.225 4.374 3.99 10 3.99s4.76-3.765 10-3.99m0 0c.161-.006.327-.01.5-.01m-.5.01c-.161-.006-.327-.01-.5-.01m.5.01c5.24.225 4.374 3.99 10 3.99s4.76-3.765 10-3.99m0 0c.161-.006.327-.01.5-.01m-.5.01c-.161-.006-.327-.01-.5-.01m.5.01c5.24.225 4.374 3.99 10 3.99s4.76-3.765 10-3.99m0 0c.161-.006.327-.01.5-.01m-.5.01c-.161-.006-.327-.01-.5-.01m.5.01c5.24.225 4.374 3.99 10 3.99s4.76-3.765 10-3.99m0 0c.161-.006.327-.01.5-.01m-.5.01c-.161-.006-.327-.01-.5-.01m.5.01c5.24.225 4.374 3.99 10 3.99s4.76-3.765 10-3.99m0 0c.161-.006.327-.01.5-.01m-.5.01c-.161-.006-.327-.01-.5-.01m.5.01c5.24.225 4.374 3.99 10 3.99s4.76-3.765 10-3.99m0 0c.161-.006.327-.01.5-.01m-.5.01c-.161-.006-.327-.01-.5-.01m.5.01c5.24.225 4.374 3.99 10 3.99s4.76-3.765 10-3.99m0 0c.161-.006.327-.01.5-.01m-.5.01c-.161-.006-.327-.01-.5-.01m.5.01c5.24.225 4.374 3.99 10 3.99s4.76-3.765 10-3.99m0 0c.161-.006.327-.01.5-.01m-.5.01c-.161-.006-.327-.01-.5-.01m.5.01c5.24.225 4.374 3.99 10 3.99s4.76-3.765 10-3.99m0 0c.161-.006.327-.01.5-.01m-.5.01c-.161-.006-.327-.01-.5-.01m.5.01c5.24.225 4.374 3.99 10 3.99s4.76-3.765 10-3.99m0 0c.161-.006.327-.01.5-.01m-.5.01c-.161-.006-.327-.01-.5-.01m.5.01c5.24.225 4.374 3.99 10 3.99s4.76-3.765 10-3.99m0 0c.161-.006.327-.01.5-.01m-.5.01c-.161-.006-.327-.01-.5-.01m.5.01c5.24.225 4.374 3.99 10 3.99s4.76-3.765 10-3.99m0 0c.161-.006.327-.01.5-.01m-.5.01c-.161-.006-.327-.01-.5-.01m.5.01c5.24.225 4.374 3.99 10 3.99s4.76-3.765 10-3.99m0 0c.161-.006.327-.01.5-.01m-.5.01c-.161-.006-.327-.01-.5-.01m.5.01c5.24.225 4.374 3.99 10 3.99s4.76-3.765 10-3.99m0 0c.161-.006.327-.01.5-.01m-.5.01c-.161-.006-.327-.01-.5-.01m.5.01c5.24.225 4.374 3.99 10 3.99s4.76-3.765 10-3.99m0 0c.161-.006.327-.01.5-.01m-.5.01c-.161-.006-.327-.01-.5-.01m.5.01c5.24.225 4.374 3.99 10 3.99s4.76-3.765 10-3.99m0 0c.161-.006.327-.01.5-.01m-.5.01c-.161-.006-.327-.01-.5-.01m.5.01c5.24.225 4.374 3.99 10 3.99s4.76-3.765 10-3.99m0 0c.161-.006.327-.01.5-.01m-.5.01c-.161-.006-.327-.01-.5-.01m.5.01c5.24.225 4.374 3.99 10 3.99s4.76-3.765 10-3.99m0 0c.161-.006.327-.01.5-.01m-.5.01c-.161-.006-.327-.01-.5-.01m.5.01c5.24.225 4.374 3.99 10 3.99s4.76-3.765 10-3.99m0 0c.161-.006.327-.01.5-.01m-.5.01c-.161-.006-.327-.01-.5-.01m.5.01c5.24.225 4.374 3.99 10 3.99s4.76-3.765 10-3.99m0 0c.161-.006.327-.01.5-.01m-.5.01c-.161-.006-.327-.01-.5-.01m.5.01c5.24.225 4.374 3.99 10 3.99 5.799 0 4.701-4 10.5-4s4.701 4 10.5 4c5.626 0 4.76-3.765 10-3.99m0 0c.161-.006.327-.01.5-.01m-.5.01c-.161-.006-.327-.01-.5-.01m.5.01c5.24.225 4.374 3.99 10 3.99s4.76-3.765 10-3.99m0 0c.161-.006.327-.01.5-.01m-.5.01c-.161-.006-.327-.01-.5-.01m.5.01c5.24.225 4.374 3.99 10 3.99s4.76-3.765 10-3.99m0 0c.161-.006.327-.01.5-.01m-.5.01c-.161-.006-.327-.01-.5-.01m.5.01c5.24.225 4.374 3.99 10 3.99s4.76-3.765 10-3.99m0 0c.161-.006.327-.01.5-.01m-.5.01c-.161-.006-.327-.01-.5-.01m.5.01c5.24.225 4.374 3.99 10 3.99s4.76-3.765 10-3.99m0 0c.161-.006.327-.01.5-.01m-.5.01c-.161-.006-.327-.01-.5-.01m.5.01c5.24.225 4.374 3.99 10 3.99s4.76-3.765 10-3.99m0 0c.161-.006.327-.01.5-.01m-.5.01c-.161-.006-.327-.01-.5-.01m.5.01c5.24.225 4.374 3.99 10 3.99s4.76-3.765 10-3.99m0 0c.161-.006.327-.01.5-.01m-.5.01c-.161-.006-.327-.01-.5-.01m.5.01c5.24.225 4.374 3.99 10 3.99s4.76-3.765 10-3.99m0 0c.161-.006.327-.01.5-.01m-.5.01c-.161-.006-.327-.01-.5-.01m.5.01c5.24.225 4.374 3.99 10 3.99s4.76-3.765 10-3.99m0 0c.161-.006.327-.01.5-.01m-.5.01c-.161-.006-.327-.01-.5-.01m.5.01c5.24.225 4.374 3.99 10 3.99s4.76-3.765 10-3.99m0 0c.161-.006.327-.01.5-.01m-.5.01c-.161-.006-.327-.01-.5-.01m.5.01c5.24.225 4.374 3.99 10 3.99s4.76-3.765 10-3.99m0 0c.161-.006.327-.01.5-.01m-.5.01c-.161-.006-.327-.01-.5-.01m.5.01c5.24.225 4.374 3.99 10 3.99s4.76-3.765 10-3.99m0 0c.161-.006.327-.01.5-.01m-.5.01c-.161-.006-.327-.01-.5-.01m.5.01c5.24.225 4.374 3.99 10 3.99s4.76-3.765 10-3.99m0 0c.161-.006.327-.01.5-.01m-.5.01c-.161-.006-.327-.01-.5-.01m.5.01c5.24.225 4.374 3.99 10 3.99s4.76-3.765 10-3.99m0 0c.161-.006.327-.01.5-.01m-.5.01c-.161-.006-.327-.01-.5-.01m.5.01c5.24.225 4.374 3.99 10 3.99s4.76-3.765 10-3.99m0 0c.161-.006.327-.01.5-.01m-.5.01c-.161-.006-.327-.01-.5-.01m.5.01c5.24.225 4.374 3.99 10 3.99s4.76-3.765 10-3.99m0 0c.161-.006.327-.01.5-.01m-.5.01c-.161-.006-.327-.01-.5-.01m.5.01c5.24.225 4.374 3.99 10 3.99s4.76-3.765 10-3.99m0 0c.161-.006.327-.01.5-.01m-.5.01c-.161-.006-.327-.01-.5-.01m.5.01c5.24.225 4.374 3.99 10 3.99s4.76-3.765 10-3.99m0 0c.161-.006.327-.01.5-.01m-.5.01c-.161-.006-.327-.01-.5-.01m.5.01c5.24.225 4.374 3.99 10 3.99s4.76-3.765 10-3.99m0 0c.161-.006.327-.01.5-.01m-.5.01c-.161-.006-.327-.01-.5-.01m.5.01c5.24.225 4.374 3.99 10 3.99s4.76-3.765 10-3.99m0 0c.16-.006.33-.01.5-.01m-.5.01c-.16-.006-.33-.01-.5-.01m.5.01c5.24.225 4.37 3.99 10 3.99s4.76-3.765 10-3.99m0 0c.16-.006.33-.01.5-.01m-.5.01c-.16-.006-.33-.01-.5-.01m.5.01c5.24.225 4.37 3.99 10 3.99s4.76-3.765 10-3.99m0 0c.16-.006.33-.01.5-.01m-.5.01c-.16-.006-.33-.01-.5-.01m.5.01c5.24.225 4.37 3.99 10 3.99s4.76-3.765 10-3.99m0 0c.16-.006.33-.01.5-.01m-.5.01c-.16-.006-.33-.01-.5-.01m.5.01c5.24.225 4.37 3.99 10 3.99s4.76-3.765 10-3.99m0 0c.16-.006.33-.01.5-.01m-.5.01c-.16-.006-.33-.01-.5-.01m.5.01c5.24.225 4.37 3.99 10 3.99s4.76-3.765 10-3.99m0 0c.16-.006.33-.01.5-.01m-.5.01c-.16-.006-.33-.01-.5-.01m.5.01c5.24.225 4.37 3.99 10 3.99s4.76-3.765 10-3.99m0 0c.16-.006.33-.01.5-.01m-.5.01c-.16-.006-.33-.01-.5-.01m.5.01c5.24.225 4.37 3.99 10 3.99s4.76-3.765 10-3.99m0 0c.16-.006.33-.01.5-.01m-.5.01c-.16-.006-.33-.01-.5-.01m.5.01c5.24.225 4.37 3.99 10 3.99s4.76-3.765 10-3.99m0 0c.16-.006.33-.01.5-.01m-.5.01c-.16-.006-.33-.01-.5-.01m.5.01c5.24.225 4.37 3.99 10 3.99s4.76-3.765 10-3.99m0 0c.16-.006.33-.01.5-.01m-.5.01c-.16-.006-.33-.01-.5-.01m.5.01c5.24.225 4.37 3.99 10 3.99 5.8 0 4.7-4 10.5-4" stroke="#4EBAE6"/>
</svg>
