<svg width="12" height="12" fill="none" xmlns="http://www.w3.org/2000/svg">
    <path d="M3.464.4a.583.583 0 1 0-1.096.397L3.68 4.433a.397.397 0 0 1-.742.279L1.71 1.554a.583.583 0 0 0-1.088.423l1.843 4.738c-.993-.107-1.701.146-2.129.39a.653.653 0 0 0-.33.662.71.71 0 0 0 .425.547c.779.341 2.558 1.218 4.082 2.672.598.57 1.47.858 2.311.606l1.633-.489a1.52 1.52 0 0 0 1.036-1.027c.175-.611.423-1.645.423-2.623 0-.67-.235-1.508-.449-2.14-.425-1.252-.9-2.489-1.333-3.738a.583.583 0 1 0-1.102.382l.58 1.67a.41.41 0 1 1-.772.272L5.799.986A.583.583 0 0 0 4.7 1.38l.943 2.642a.41.41 0 0 1-.771.277L3.464.401ZM9.703.205a.438.438 0 0 1 .609-.11c.47.327.862.9 1.107 1.532.247.638.367 1.39.24 2.111a.438.438 0 1 1-.862-.151c.094-.532.008-1.122-.194-1.644-.204-.528-.507-.933-.79-1.13a.438.438 0 0 1-.11-.608Zm-.196 1.118a.438.438 0 0 0-.64.596c.243.262.465.578.465 1.16a.437.437 0 1 0 .875 0c0-.875-.363-1.394-.7-1.756Z" fill="#FFDB4D"/>
</svg>
