<svg width="29" height="10" viewBox="0 0 29 10" fill="none" xmlns="http://www.w3.org/2000/svg">
<path d="M27.5 0C28.0523 0 28.5 0.447715 28.5 1C28.5 1.55228 28.0523 2 27.5 2H1C0.447715 2 0 1.55228 0 1C0 0.447715 0.447715 0 1 0H27.5Z" fill="#4EBAE6"/>
<path d="M23 4C23.5523 4 24 4.44772 24 5C24 5.55228 23.5523 6 23 6H5C4.44772 6 4 5.55228 4 5C4 4.44772 4.44772 4 5 4H23Z" fill="#4EBAE6"/>
<path d="M19 8C19.5523 8 20 8.44771 20 9C20 9.55229 19.5523 10 19 10H9C8.44771 10 8 9.55229 8 9C8 8.44771 8.44771 8 9 8H19Z" fill="#4EBAE6"/>
</svg>
