<svg width="187" height="89" fill="none" xmlns="http://www.w3.org/2000/svg">
    <path d="M186.734 47.849c-10.487 0-17.167 1.182-22.362 2.82-5.655 1.785-10.001 4.228-15.394 7.328-5.057 2.908-11.162 6.474-19.791 9.196-9.088 2.867-20.524 4.69-35.82 4.69s-26.732-1.823-35.82-4.69c-8.63-2.722-14.734-6.288-19.792-9.196-5.392-3.1-9.739-5.543-15.393-7.327C17.167 49.03 10.487 47.849 0 47.849v-8.74c15.296 0 24.665 2.376 33.754 5.244 8.629 2.722 12.363 6.378 17.42 9.286 5.393 3.1 13.4 5.535 19.055 7.32 5.195 1.638 12.651 2.184 23.138 2.184 10.487 0 18.487-.546 23.682-2.185 5.655-1.784 13.117-3.673 18.51-6.773 5.058-2.908 9.065-7.11 17.693-9.832 9.089-2.868 18.186-5.244 33.482-5.244v8.74Z" fill="#fff" style="color: var(--wave-light-color, currentColor)"/>
    <path d="M186.734 53.31c-10.487 0-17.167 1.183-22.362 2.822-5.655 1.784-10.001 4.227-15.394 7.327-5.057 2.908-11.162 6.474-19.791 9.196-9.088 2.868-20.524 4.69-35.82 4.69s-26.732-1.822-35.82-4.69c-8.63-2.722-14.734-6.288-19.792-9.196-5.392-3.1-9.739-5.543-15.393-7.327C17.167 54.492 10.487 53.31 0 53.31v-8.74c15.296 0 24.665 2.377 33.754 5.244 8.629 2.722 12.363 6.378 17.42 9.286 5.393 3.1 13.4 5.535 19.055 7.32 5.195 1.638 12.651 2.184 23.138 2.184 10.487 0 18.487-.546 23.682-2.185 5.655-1.784 13.117-3.672 18.51-6.773 5.058-2.908 9.065-7.11 17.693-9.832 9.089-2.867 18.186-5.244 33.482-5.244v8.74Z" fill="#fff" style="color: var(--wave-light-color, currentColor)"/>
    <path d="M186.734 58.773c-10.487 0-17.167 1.182-22.362 2.821-5.655 1.784-10.001 4.227-15.394 7.327-5.057 2.908-11.162 6.474-19.791 9.197-9.088 2.867-20.524 4.69-35.82 4.69s-26.732-1.823-35.82-4.69c-8.63-2.723-14.734-6.288-19.792-9.197-5.392-3.1-9.739-5.543-15.393-7.327-5.195-1.639-11.875-2.82-22.362-2.82v-8.74c15.296 0 24.665 2.376 33.754 5.243 8.629 2.723 12.363 6.378 17.42 9.286 5.393 3.1 13.4 5.536 19.055 7.32 5.195 1.639 12.651 2.185 23.138 2.185 10.487 0 18.487-.546 23.682-2.185 5.655-1.784 13.117-3.673 18.51-6.774 5.058-2.908 9.065-7.11 17.693-9.832 9.089-2.867 18.186-5.244 33.482-5.244v8.74Z" fill="#fff" style="color: var(--wave-light-color, currentColor)"/>
    <path d="M186.734 64.235c-10.487 0-17.167 1.183-22.362 2.821-5.655 1.784-10.001 4.227-15.394 7.328-5.057 2.908-11.162 6.473-19.791 9.196-9.088 2.867-20.524 4.69-35.82 4.69s-26.732-1.823-35.82-4.69c-8.63-2.723-14.734-6.288-19.792-9.196-5.392-3.1-9.739-5.544-15.393-7.328-5.195-1.638-11.875-2.82-22.362-2.82v-8.74c15.296 0 24.665 2.376 33.754 5.244 8.629 2.722 12.363 6.377 17.42 9.285 5.393 3.1 13.4 5.536 19.055 7.32 5.195 1.639 12.651 2.185 23.138 2.185 10.487 0 18.487-.546 23.682-2.185 5.655-1.784 13.117-3.673 18.51-6.773 5.058-2.908 9.065-7.11 17.693-9.832 9.089-2.868 18.186-5.244 33.482-5.244v8.74Z" fill="#fff" style="color: var(--wave-light-color, currentColor)"/>
    <path d="M186.734 31.78c-10.487 0-17.167 1.181-22.362 2.82-5.655 1.784-10.001 4.227-15.394 7.328-5.057 2.908-11.162 6.473-19.791 9.196-9.088 2.867-20.524 4.69-35.82 4.69s-26.732-1.823-35.82-4.69c-8.63-2.723-14.734-6.288-19.792-9.196-5.392-3.1-9.739-5.544-15.393-7.328C17.167 32.961 10.487 31.78 0 31.78v-8.74c15.296 0 24.665 2.376 33.754 5.244 8.629 2.722 12.363 6.377 17.42 9.285 5.393 3.1 13.4 5.536 19.055 7.32 5.195 1.639 12.651 2.185 23.138 2.185 10.487 0 18.487-.546 23.682-2.185 5.655-1.784 13.117-3.673 18.51-6.773 5.058-2.908 9.065-7.11 17.693-9.832 9.089-2.868 18.186-5.244 33.482-5.244v8.74Z" fill="#fff" style="color: var(--wave-light-color, currentColor)"/>
    <path d="M186.734 37.242c-10.487 0-17.167 1.182-22.362 2.82-5.655 1.785-10.001 4.227-15.394 7.328-5.057 2.908-11.162 6.474-19.791 9.196-9.088 2.867-20.524 4.69-35.82 4.69s-26.732-1.823-35.82-4.69c-8.63-2.722-14.734-6.288-19.792-9.196-5.392-3.1-9.739-5.543-15.393-7.327-5.195-1.64-11.875-2.821-22.362-2.821v-8.74c15.296 0 24.665 2.376 33.754 5.244 8.629 2.722 12.363 6.378 17.42 9.286 5.393 3.1 13.4 5.535 19.055 7.32 5.195 1.638 12.651 2.184 23.138 2.184 10.487 0 18.487-.546 23.682-2.185 5.655-1.784 13.117-3.673 18.51-6.773 5.058-2.908 9.065-7.11 17.693-9.832 9.089-2.868 18.186-5.244 33.482-5.244v8.74Z" fill="#fff" style="color: var(--wave-light-color, currentColor)"/>
    <path d="M186.734 42.704c-10.487 0-17.167 1.182-22.362 2.82-5.655 1.785-10.001 4.228-15.394 7.328-5.057 2.908-11.162 6.474-19.791 9.196-9.088 2.868-20.524 4.69-35.82 4.69s-26.732-1.822-35.82-4.69c-8.63-2.722-14.734-6.288-19.792-9.196-5.392-3.1-9.739-5.543-15.393-7.327-5.195-1.64-11.875-2.821-22.362-2.821v-8.74c15.296 0 24.665 2.377 33.754 5.244 8.629 2.722 12.363 6.378 17.42 9.286 5.393 3.1 13.4 5.535 19.055 7.32 5.195 1.638 12.651 2.184 23.138 2.184 10.487 0 18.487-.546 23.682-2.185 5.655-1.784 13.117-3.672 18.51-6.773 5.058-2.908 9.065-7.11 17.693-9.832 9.089-2.867 18.186-5.244 33.482-5.244v8.74Z" fill="#fff" style="color: var(--wave-light-color, currentColor)"/>
    <path d="M186.734 48.166c-10.487 0-17.167 1.182-22.362 2.821-5.655 1.784-10.001 4.227-15.394 7.328-5.057 2.907-11.162 6.473-19.791 9.195-9.088 2.868-20.524 4.69-35.82 4.69s-26.732-1.822-35.82-4.69c-8.63-2.722-14.734-6.288-19.792-9.196-5.392-3.1-9.739-5.543-15.393-7.327-5.195-1.639-11.875-2.82-22.362-2.82v-8.74c15.296 0 24.665 2.376 33.754 5.243 8.629 2.723 12.363 6.378 17.42 9.286 5.393 3.1 13.4 5.536 19.055 7.32 5.195 1.639 12.651 2.185 23.138 2.185 10.487 0 18.487-.546 23.682-2.185 5.655-1.784 13.117-3.673 18.51-6.774 5.058-2.908 9.065-7.11 17.693-9.832 9.089-2.867 18.186-5.244 33.482-5.244v8.74ZM186.734 9.74c-10.487 0-17.167 1.182-22.362 2.82-5.655 1.785-10.001 4.228-15.394 7.328-5.057 2.908-11.162 6.474-19.791 9.196-9.088 2.867-20.524 4.69-35.82 4.69s-26.732-1.823-35.82-4.69c-8.63-2.722-14.734-6.288-19.792-9.196-5.392-3.1-9.739-5.543-15.393-7.327C17.167 10.92 10.487 9.74 0 9.74V1c15.296 0 24.665 2.376 33.754 5.244 8.629 2.722 12.363 6.378 17.42 9.286 5.393 3.1 13.4 5.535 19.055 7.32 5.195 1.638 12.651 2.184 23.138 2.184 10.487 0 18.487-.546 23.682-2.185 5.655-1.784 13.117-3.673 18.51-6.773 5.058-2.908 9.065-7.11 17.693-9.832C162.341 3.376 171.438 1 186.734 1v8.74Z" fill="#fff" style="color: var(--wave-light-color, currentColor)"/>
    <path d="M186.734 15.202c-10.487 0-17.167 1.182-22.362 2.82-5.655 1.785-10.001 4.228-15.394 7.328-5.057 2.908-11.162 6.474-19.791 9.196-9.088 2.868-20.524 4.69-35.82 4.69s-26.732-1.822-35.82-4.69c-8.63-2.722-14.734-6.288-19.792-9.196-5.392-3.1-9.739-5.543-15.393-7.327C17.167 16.384 10.487 15.202 0 15.202v-8.74c15.296 0 24.665 2.377 33.754 5.244 8.629 2.722 12.363 6.378 17.42 9.286 5.393 3.1 13.4 5.535 19.055 7.32 5.195 1.638 12.651 2.184 23.138 2.184 10.487 0 18.487-.546 23.682-2.185 5.655-1.784 13.117-3.672 18.51-6.773 5.058-2.908 9.065-7.11 17.693-9.832 9.089-2.867 18.186-5.244 33.482-5.244v8.74Z" fill="#fff" style="color: var(--wave-light-color, currentColor)"/>
    <path d="M186.734 20.664c-10.487 0-17.167 1.182-22.362 2.821-5.655 1.784-10.001 4.227-15.394 7.328-5.057 2.908-11.162 6.473-19.791 9.196-9.088 2.867-20.524 4.69-35.82 4.69s-26.732-1.823-35.82-4.69c-8.63-2.723-14.734-6.288-19.792-9.197-5.392-3.1-9.739-5.543-15.393-7.327-5.195-1.639-11.875-2.82-22.362-2.82v-8.74c15.296 0 24.665 2.376 33.754 5.243 8.629 2.723 12.363 6.378 17.42 9.286 5.393 3.1 13.4 5.536 19.055 7.32 5.195 1.639 12.651 2.185 23.138 2.185 10.487 0 18.487-.546 23.682-2.185 5.655-1.784 13.117-3.673 18.51-6.774 5.058-2.908 9.065-7.11 17.693-9.832 9.089-2.867 18.186-5.243 33.482-5.243v8.74Z" fill="#fff" style="color: var(--wave-light-color, currentColor)"/>
    <path d="M186.734 26.127c-10.487 0-17.167 1.181-22.362 2.82-5.655 1.785-10.001 4.227-15.394 7.328-5.057 2.908-11.162 6.474-19.791 9.196-9.088 2.867-20.524 4.69-35.82 4.69s-26.732-1.823-35.82-4.69c-8.63-2.722-14.734-6.288-19.792-9.196-5.392-3.1-9.739-5.543-15.393-7.327-5.195-1.64-11.875-2.822-22.362-2.822v-8.74c15.296 0 24.665 2.377 33.754 5.245 8.629 2.722 12.363 6.378 17.42 9.285 5.393 3.101 13.4 5.536 19.055 7.32 5.195 1.639 12.651 2.185 23.138 2.185 10.487 0 18.487-.546 23.682-2.185 5.655-1.784 13.117-3.673 18.51-6.773 5.058-2.908 9.065-7.11 17.693-9.832 9.089-2.868 18.186-5.244 33.482-5.244v8.74Z" fill="#fff" style="color: var(--wave-light-color, currentColor)"/>
    <path d="M186.733 56.496c-12.809 0-21.761 1.526-28.784 3.792-7.025 2.267-12.166 5.287-17.391 8.36-5.225 3.072-10.535 6.198-17.792 8.54-7.261 2.342-16.426 3.888-29.399 3.888-12.972 0-22.138-1.546-29.398-3.888-7.258-2.342-12.568-5.469-17.792-8.54-5.226-3.073-10.367-6.093-17.393-8.36C21.761 58.022 12.81 56.496 0 56.496v-2c12.973 0 22.138 1.546 29.398 3.889 7.258 2.342 12.568 5.467 17.792 8.539 5.226 3.073 10.367 6.093 17.393 8.36 7.023 2.266 15.975 3.792 28.784 3.792 12.81 0 21.761-1.526 28.784-3.792 7.026-2.267 12.167-5.287 17.393-8.36 5.224-3.072 10.534-6.198 17.792-8.54 7.26-2.342 16.425-3.888 29.397-3.888v2Zm0-5.463c-12.809 0-21.761 1.527-28.784 3.793-7.025 2.267-12.166 5.287-17.391 8.36-5.225 3.072-10.535 6.197-17.792 8.539-7.261 2.342-16.426 3.89-29.399 3.89-12.973 0-22.138-1.548-29.398-3.89-7.258-2.342-12.568-5.467-17.792-8.54-5.226-3.072-10.367-6.092-17.393-8.359C21.761 52.56 12.81 51.033 0 51.033v-2c12.973 0 22.138 1.547 29.398 3.89 7.258 2.342 12.568 5.467 17.792 8.539 5.226 3.073 10.367 6.092 17.393 8.36 7.023 2.265 15.975 3.792 28.784 3.792 12.81 0 21.761-1.527 28.784-3.793 7.026-2.267 12.167-5.286 17.393-8.36 5.224-3.071 10.534-6.196 17.792-8.538 7.26-2.343 16.425-3.89 29.397-3.89v2Zm0-5.462c-12.809 0-21.761 1.526-28.784 3.792-7.025 2.267-12.166 5.288-17.391 8.36-5.225 3.073-10.535 6.198-17.792 8.54-7.261 2.342-16.426 3.888-29.399 3.888-12.973 0-22.138-1.546-29.398-3.888-7.258-2.342-12.568-5.467-17.792-8.54-5.226-3.072-10.367-6.093-17.393-8.36C21.761 47.097 12.81 45.571 0 45.571v-2c12.973 0 22.138 1.546 29.398 3.889 7.258 2.342 12.568 5.467 17.792 8.539 5.226 3.073 10.367 6.093 17.393 8.36 7.023 2.266 15.975 3.792 28.784 3.792 12.81 0 21.761-1.526 28.784-3.792 7.026-2.267 12.167-5.287 17.393-8.36 5.224-3.072 10.534-6.197 17.792-8.539 7.26-2.343 16.425-3.889 29.397-3.889v2Zm0-5.144c-12.809 0-21.761 1.526-28.784 3.792-7.025 2.267-12.165 5.287-17.391 8.36-5.225 3.072-10.535 6.197-17.792 8.54-7.261 2.342-16.426 3.888-29.399 3.888-12.972 0-22.138-1.546-29.398-3.889-7.258-2.342-12.568-5.467-17.792-8.539-5.226-3.073-10.367-6.093-17.393-8.36C21.761 41.953 12.81 40.427 0 40.427v-2.318c12.973 0 22.138 1.546 29.398 3.889 7.258 2.342 12.568 5.467 17.792 8.54 5.226 3.072 10.367 6.092 17.393 8.359 7.023 2.266 15.975 3.793 28.784 3.793 12.81 0 21.761-1.527 28.784-3.793 7.026-2.267 12.167-5.287 17.393-8.36 5.224-3.072 10.534-6.197 17.792-8.539 7.26-2.343 16.425-3.889 29.397-3.889v2.318Zm0-5.463c-12.809 0-21.761 1.527-28.784 3.793-7.025 2.267-12.166 5.286-17.391 8.36-5.225 3.071-10.535 6.197-17.792 8.538-7.261 2.343-16.426 3.89-29.399 3.89-12.973 0-22.138-1.547-29.398-3.89-7.258-2.342-12.568-5.467-17.792-8.539-5.226-3.073-10.367-6.092-17.393-8.36C21.761 36.492 12.81 34.965 0 34.965v-2c12.973 0 22.138 1.547 29.398 3.89 7.258 2.341 12.568 5.467 17.792 8.539 5.226 3.072 10.367 6.092 17.393 8.359 7.023 2.266 15.975 3.793 28.784 3.793 12.81 0 21.761-1.527 28.784-3.793 7.026-2.267 12.167-5.287 17.393-8.36 5.224-3.071 10.534-6.197 17.792-8.539 7.26-2.342 16.425-3.89 29.397-3.89v2Zm0-5.462c-12.809 0-21.761 1.526-28.784 3.792-7.025 2.267-12.166 5.287-17.391 8.36-5.225 3.072-10.535 6.198-17.792 8.54-7.261 2.342-16.426 3.888-29.399 3.888-12.973 0-22.138-1.546-29.398-3.889-7.258-2.341-12.568-5.467-17.792-8.539-5.226-3.073-10.367-6.093-17.393-8.36C21.761 31.028 12.81 29.502 0 29.502v-2c12.973 0 22.138 1.546 29.398 3.889 7.258 2.341 12.568 5.467 17.792 8.539 5.226 3.073 10.367 6.093 17.393 8.36 7.023 2.266 15.975 3.792 28.784 3.792 12.81 0 21.761-1.526 28.784-3.792 7.026-2.267 12.167-5.287 17.393-8.36 5.224-3.072 10.534-6.198 17.792-8.54 7.26-2.342 16.425-3.888 29.397-3.888v2Zm0-5.462c-12.809 0-21.761 1.526-28.784 3.792-7.025 2.267-12.166 5.287-17.391 8.36-5.225 3.072-10.535 6.198-17.792 8.54-7.261 2.342-16.426 3.888-29.399 3.888-12.972 0-22.138-1.546-29.398-3.889-7.258-2.341-12.568-5.468-17.792-8.54-5.226-3.073-10.367-6.092-17.393-8.359C21.761 25.566 12.81 24.04 0 24.04v-2c12.973 0 22.138 1.546 29.398 3.889 7.258 2.341 12.568 5.467 17.792 8.539 5.226 3.073 10.367 6.092 17.393 8.36 7.023 2.265 15.975 3.792 28.784 3.792 12.81 0 21.761-1.527 28.784-3.793 7.026-2.267 12.167-5.286 17.393-8.36 5.224-3.071 10.534-6.197 17.792-8.538 7.26-2.343 16.425-3.889 29.397-3.889v2Zm0-5.653c-12.809 0-21.761 1.526-28.784 3.792-7.025 2.267-12.166 5.287-17.391 8.36-5.225 3.072-10.535 6.197-17.792 8.54-7.261 2.342-16.426 3.888-29.399 3.888-12.973 0-22.138-1.546-29.398-3.889-7.258-2.342-12.568-5.467-17.792-8.539-5.226-3.073-10.367-6.093-17.393-8.36C21.761 19.913 12.81 18.387 0 18.387v-2c12.973 0 22.138 1.546 29.398 3.888 7.258 2.342 12.568 5.468 17.792 8.54 5.226 3.073 10.367 6.093 17.393 8.36 7.023 2.266 15.975 3.792 28.784 3.792 12.81 0 21.761-1.526 28.784-3.792 7.026-2.267 12.167-5.287 17.393-8.36 5.224-3.072 10.534-6.198 17.792-8.54 7.26-2.342 16.425-3.888 29.397-3.888v2Zm0-5.462c-12.809 0-21.761 1.526-28.784 3.792-7.025 2.267-12.165 5.287-17.391 8.36-5.225 3.072-10.535 6.197-17.792 8.54-7.261 2.342-16.426 3.888-29.399 3.888-12.972 0-22.138-1.546-29.398-3.889-7.258-2.342-12.568-5.467-17.792-8.539-5.226-3.073-10.367-6.093-17.393-8.36C21.761 14.45 12.81 12.925 0 12.925v-2c12.973 0 22.138 1.546 29.398 3.888 7.258 2.342 12.568 5.467 17.792 8.54 5.226 3.072 10.367 6.093 17.393 8.36 7.023 2.266 15.975 3.792 28.784 3.792 12.81 0 21.761-1.526 28.784-3.792 7.026-2.267 12.167-5.288 17.393-8.36 5.224-3.073 10.534-6.198 17.792-8.54 7.26-2.342 16.425-3.888 29.397-3.888v2Zm0-5.463c-12.809 0-21.761 1.527-28.784 3.793-7.025 2.267-12.166 5.286-17.391 8.36-5.225 3.071-10.535 6.197-17.792 8.538-7.261 2.343-16.426 3.89-29.399 3.89-12.973 0-22.138-1.547-29.398-3.89-7.258-2.341-12.568-5.467-17.792-8.539-5.226-3.073-10.367-6.092-17.393-8.36C21.761 8.99 12.81 7.463 0 7.463v-2c12.973 0 22.138 1.547 29.398 3.89 7.258 2.341 12.568 5.467 17.792 8.539 5.226 3.073 10.367 6.092 17.393 8.359 7.023 2.266 15.975 3.793 28.784 3.793 12.81 0 21.761-1.527 28.784-3.793 7.026-2.267 12.167-5.286 17.393-8.36 5.224-3.071 10.534-6.197 17.792-8.538 7.26-2.343 16.425-3.89 29.397-3.89v2Zm0-5.462c-12.809 0-21.761 1.526-28.784 3.792-7.025 2.267-12.166 5.287-17.391 8.36-5.225 3.072-10.535 6.198-17.792 8.54-7.261 2.342-16.426 3.888-29.399 3.888-12.973 0-22.138-1.546-29.398-3.889-7.258-2.341-12.568-5.467-17.792-8.539C40.95 11.08 35.81 8.06 28.784 5.792 21.761 3.526 12.81 2 0 2V0c12.973 0 22.138 1.546 29.398 3.889 7.258 2.341 12.568 5.467 17.792 8.539 5.226 3.073 10.367 6.093 17.393 8.36 7.023 2.266 15.975 3.792 28.784 3.792 12.81 0 21.761-1.526 28.784-3.792 7.026-2.267 12.167-5.287 17.393-8.36 5.224-3.072 10.534-6.198 17.792-8.54C164.596 1.547 173.761 0 186.733 0v2Z" fill="#4EBAE6" style="color: var(--wave-dark-color, currentColor)" />
</svg>
